<?xml version="1.0" encoding="UTF-8" standalone="no"?>
<!DOCTYPE svg PUBLIC "-//W3C//DTD SVG 1.1//EN" "http://www.w3.org/Graphics/SVG/1.1/DTD/svg11.dtd">
<svg width="100%" height="100%" viewBox="0 0 1281 1280" version="1.1" xmlns="http://www.w3.org/2000/svg" xmlns:xlink="http://www.w3.org/1999/xlink" xml:space="preserve" xmlns:serif="http://www.serif.com/" style="fill-rule:evenodd;clip-rule:evenodd;stroke-linejoin:round;stroke-miterlimit:2;">
    <g transform="matrix(1,0,0,1,-4119,0)">
        <g id="Logogram" transform="matrix(0.666667,0,0,0.666667,4119.57,0)">
            <rect x="0" y="0" width="1920" height="1920" style="fill:none;"/>
            <g transform="matrix(1.76334,0,0,1.76334,-732.811,0)">
                <g transform="matrix(4.0382,0,0,4.0382,-18018.8,-5136.59)">
                    <path d="M4697.99,1272.76C4698.48,1272.27 4699.13,1272 4699.82,1272C4700.5,1272 4701.16,1272.27 4701.64,1272.76L4709.98,1281.11C4710.76,1281.89 4711.79,1282.38 4712.88,1282.49C4713.98,1282.61 4715.08,1282.34 4716.01,1281.74L4725.9,1275.31C4726.48,1274.93 4727.18,1274.8 4727.85,1274.95C4728.52,1275.09 4729.1,1275.49 4729.48,1276.07L4735.9,1285.97C4736.5,1286.9 4737.4,1287.59 4738.45,1287.93C4739.5,1288.27 4740.63,1288.24 4741.66,1287.84L4752.68,1283.6C4753.32,1283.36 4754.03,1283.38 4754.65,1283.66C4755.28,1283.93 4755.77,1284.45 4756.01,1285.09L4760.24,1296.11C4760.63,1297.14 4761.37,1298.01 4762.32,1298.56C4763.28,1299.11 4764.39,1299.32 4765.48,1299.14L4777.14,1297.29C4777.82,1297.18 4778.51,1297.35 4779.06,1297.75C4779.61,1298.15 4779.99,1298.76 4780.09,1299.43L4781.93,1311.09C4782.1,1312.18 4782.65,1313.18 4783.46,1313.92C4784.28,1314.66 4785.33,1315.09 4786.43,1315.15L4798.22,1315.76C4798.91,1315.79 4799.55,1316.1 4800.01,1316.61C4800.46,1317.12 4800.7,1317.79 4800.66,1318.47L4800.04,1330.26C4799.98,1331.36 4800.3,1332.45 4800.95,1333.34C4801.6,1334.23 4802.53,1334.87 4803.6,1335.16L4815.01,1338.21C4815.67,1338.38 4816.23,1338.82 4816.57,1339.41C4816.91,1340 4817.01,1340.71 4816.83,1341.37L4813.77,1352.77C4813.48,1353.83 4813.57,1354.96 4814.02,1355.97C4814.47,1356.98 4815.25,1357.8 4816.23,1358.3L4826.75,1363.65C4827.36,1363.96 4827.82,1364.51 4828.04,1365.16C4828.25,1365.81 4828.19,1366.52 4827.88,1367.13L4822.52,1377.64C4822.01,1378.62 4821.86,1379.75 4822.09,1380.83C4822.32,1381.9 4822.92,1382.87 4823.77,1383.57L4832.95,1390.99C4833.48,1391.42 4833.82,1392.04 4833.9,1392.73C4833.97,1393.41 4833.77,1394.09 4833.34,1394.62L4825.9,1403.79C4825.2,1404.64 4824.83,1405.71 4824.83,1406.82C4824.83,1407.92 4825.2,1408.99 4825.9,1409.85L4833.34,1419.02C4833.77,1419.55 4833.97,1420.23 4833.9,1420.91C4833.82,1421.59 4833.48,1422.21 4832.95,1422.65L4823.77,1430.07C4822.92,1430.76 4822.32,1431.73 4822.09,1432.81C4821.86,1433.89 4822.01,1435.01 4822.52,1435.99L4827.88,1446.51C4828.19,1447.12 4828.25,1447.83 4828.04,1448.48C4827.82,1449.13 4827.36,1449.67 4826.75,1449.98L4816.23,1455.33C4815.25,1455.83 4814.47,1456.65 4814.02,1457.66C4813.57,1458.67 4813.48,1459.8 4813.77,1460.87L4816.83,1472.27C4817.01,1472.93 4816.91,1473.63 4816.57,1474.23C4816.23,1474.82 4815.67,1475.25 4815.01,1475.43L4803.6,1478.48C4802.53,1478.76 4801.6,1479.4 4800.95,1480.3C4800.3,1481.19 4799.98,1482.28 4800.04,1483.38L4800.66,1495.16C4800.7,1495.85 4800.46,1496.52 4800.01,1497.03C4799.55,1497.54 4798.91,1497.84 4798.22,1497.88L4786.43,1498.49C4785.33,1498.55 4784.28,1498.98 4783.46,1499.72C4782.65,1500.45 4782.1,1501.45 4781.93,1502.54L4780.09,1514.2C4779.99,1514.88 4779.61,1515.49 4779.06,1515.89C4778.51,1516.29 4777.82,1516.45 4777.14,1516.35L4765.48,1514.49C4764.39,1514.32 4763.28,1514.53 4762.32,1515.08C4761.37,1515.63 4760.63,1516.49 4760.24,1517.52L4756.01,1528.55C4755.77,1529.18 4755.28,1529.7 4754.65,1529.98C4754.03,1530.26 4753.32,1530.28 4752.68,1530.03L4741.66,1525.79C4740.63,1525.4 4739.5,1525.37 4738.45,1525.71C4737.4,1526.05 4736.5,1526.74 4735.9,1527.66L4729.48,1537.57C4729.1,1538.14 4728.52,1538.55 4727.85,1538.69C4727.18,1538.83 4726.48,1538.7 4725.9,1538.33L4716.01,1531.89C4715.08,1531.29 4713.98,1531.03 4712.88,1531.14C4711.79,1531.26 4710.76,1531.75 4709.98,1532.53L4701.64,1540.88C4701.16,1541.36 4700.5,1541.63 4699.82,1541.63C4699.13,1541.63 4698.48,1541.36 4697.99,1540.88L4689.65,1532.53C4688.87,1531.75 4687.85,1531.26 4686.75,1531.14C4685.65,1531.03 4684.55,1531.29 4683.63,1531.89L4673.73,1538.33C4673.16,1538.7 4672.46,1538.83 4671.79,1538.69C4671.12,1538.55 4670.53,1538.14 4670.16,1537.57L4663.74,1527.66C4663.14,1526.74 4662.24,1526.05 4661.19,1525.71C4660.14,1525.37 4659.01,1525.4 4657.98,1525.79L4646.96,1530.03C4646.32,1530.28 4645.61,1530.26 4644.98,1529.98C4644.36,1529.7 4643.87,1529.18 4643.62,1528.55L4639.4,1517.52C4639.01,1516.49 4638.27,1515.63 4637.31,1515.08C4636.36,1514.53 4635.24,1514.32 4634.15,1514.49L4622.49,1516.35C4621.82,1516.45 4621.13,1516.29 4620.57,1515.89C4620.02,1515.49 4619.65,1514.88 4619.54,1514.2L4617.7,1502.54C4617.53,1501.45 4616.99,1500.45 4616.17,1499.72C4615.35,1498.98 4614.3,1498.55 4613.2,1498.49L4601.41,1497.88C4600.73,1497.84 4600.09,1497.54 4599.63,1497.03C4599.17,1496.52 4598.93,1495.85 4598.97,1495.16L4599.6,1483.38C4599.65,1482.28 4599.33,1481.19 4598.68,1480.3C4598.03,1479.4 4597.1,1478.76 4596.03,1478.48L4584.63,1475.43C4583.97,1475.25 4583.4,1474.82 4583.06,1474.23C4582.72,1473.63 4582.63,1472.93 4582.81,1472.27L4585.87,1460.87C4586.15,1459.8 4586.07,1458.67 4585.62,1457.66C4585.17,1456.65 4584.39,1455.83 4583.4,1455.33L4572.88,1449.98C4572.27,1449.67 4571.81,1449.13 4571.6,1448.48C4571.39,1447.83 4571.44,1447.12 4571.75,1446.51L4577.12,1435.99C4577.62,1435.01 4577.77,1433.89 4577.54,1432.81C4577.31,1431.73 4576.72,1430.76 4575.86,1430.07L4566.68,1422.65C4566.15,1422.21 4565.81,1421.59 4565.74,1420.91C4565.67,1420.23 4565.87,1419.55 4566.3,1419.02L4573.73,1409.85C4574.43,1408.99 4574.81,1407.92 4574.81,1406.82C4574.81,1405.71 4574.43,1404.64 4573.73,1403.79L4566.3,1394.62C4565.87,1394.09 4565.67,1393.41 4565.74,1392.73C4565.81,1392.04 4566.15,1391.42 4566.68,1390.99L4575.86,1383.57C4576.72,1382.87 4577.31,1381.9 4577.54,1380.83C4577.77,1379.75 4577.62,1378.62 4577.12,1377.64L4571.75,1367.13C4571.44,1366.52 4571.39,1365.81 4571.6,1365.16C4571.81,1364.51 4572.27,1363.96 4572.88,1363.65L4583.4,1358.3C4584.39,1357.8 4585.17,1356.98 4585.62,1355.97C4586.07,1354.96 4586.15,1353.83 4585.87,1352.77L4582.81,1341.37C4582.63,1340.71 4582.72,1340 4583.06,1339.41C4583.4,1338.82 4583.97,1338.38 4584.63,1338.21L4596.03,1335.16C4597.1,1334.87 4598.03,1334.23 4598.68,1333.34C4599.33,1332.45 4599.65,1331.36 4599.6,1330.26L4598.97,1318.47C4598.93,1317.79 4599.17,1317.12 4599.63,1316.61C4600.09,1316.1 4600.73,1315.79 4601.41,1315.76L4613.2,1315.15C4614.3,1315.09 4615.35,1314.66 4616.17,1313.92C4616.99,1313.18 4617.53,1312.18 4617.7,1311.09L4619.54,1299.43C4619.65,1298.76 4620.02,1298.15 4620.57,1297.75C4621.13,1297.35 4621.82,1297.18 4622.49,1297.29L4634.15,1299.14C4635.24,1299.32 4636.36,1299.11 4637.31,1298.56C4638.27,1298.01 4639.01,1297.14 4639.4,1296.11L4643.62,1285.09C4643.87,1284.45 4644.36,1283.93 4644.98,1283.66C4645.61,1283.38 4646.32,1283.36 4646.96,1283.6L4657.98,1287.84C4659.01,1288.24 4660.14,1288.27 4661.19,1287.93C4662.24,1287.59 4663.14,1286.9 4663.74,1285.97L4670.16,1276.07C4670.53,1275.49 4671.12,1275.09 4671.79,1274.95C4672.46,1274.8 4673.16,1274.93 4673.73,1275.31L4683.63,1281.74C4684.55,1282.34 4685.65,1282.61 4686.75,1282.49C4687.85,1282.38 4688.87,1281.89 4689.65,1281.11L4697.99,1272.76Z" style="fill:rgb(243,243,16);"/>
                </g>
                <g transform="matrix(5.62413,-9.6215e-17,-3.05174e-16,5.62413,-14545.6,-953.886)">
                    <path d="M2808.23,244.612C2812.85,252.977 2815.47,262.59 2815.47,272.811C2815.47,273.828 2815.45,274.839 2815.4,275.843C2815.31,277.51 2815.82,279.153 2816.82,280.485C2820.14,284.863 2821.97,289.686 2821.97,294.748C2821.97,314.928 2792.85,331.311 2756.97,331.311C2721.1,331.311 2691.97,314.928 2691.97,294.748C2691.97,290.453 2693.29,286.331 2695.72,282.501C2697.51,279.626 2698.46,276.304 2698.45,272.916C2698.47,272.881 2698.47,272.846 2698.47,272.811C2698.47,262.59 2701.1,252.977 2705.72,244.612L2696.45,235.349C2694.89,233.786 2694.89,231.254 2696.45,229.692L2706.22,219.927C2707.78,218.365 2710.31,218.365 2711.88,219.927L2719.69,227.743C2722.8,225.172 2726.17,222.915 2729.76,221.021L2727.11,211.13C2726.54,208.996 2727.81,206.803 2729.94,206.231L2743.28,202.657C2745.41,202.085 2747.61,203.351 2748.18,205.485L2750.63,214.651C2752.72,214.426 2754.83,214.311 2756.97,214.311C2759.12,214.311 2761.23,214.426 2763.32,214.651L2765.77,205.485C2766.34,203.351 2768.54,202.085 2770.67,202.657L2784.01,206.231C2786.14,206.803 2787.41,208.996 2786.84,211.13L2784.19,221.021C2787.78,222.915 2791.16,225.172 2794.26,227.743L2802.08,219.927C2803.64,218.365 2806.17,218.365 2807.73,219.927L2817.5,229.692C2819.06,231.254 2819.06,233.786 2817.5,235.349L2808.23,244.612Z" style="fill:rgb(230,86,230);"/>
                </g>
                <g transform="matrix(5.95496,-1.46418e-17,-3.23125e-16,5.95496,-11872.6,-1036.26)">
                    <path d="M2119.41,280.038C2114.94,276.975 2112,271.828 2112,266C2112,256.617 2119.62,249 2129,249C2138.38,249 2146,256.617 2146,266C2146,272.075 2142.81,277.41 2138.01,280.416C2132.66,277.973 2125.74,278.266 2119.41,280.038Z" style="fill:white;"/>
                </g>
                <g transform="matrix(5.95496,-1.46418e-17,-3.23125e-16,5.95496,-11563.6,-1036.26)">
                    <path d="M2119.99,280.416C2115.19,277.41 2112,272.075 2112,266C2112,256.617 2119.62,249 2129,249C2138.38,249 2146,256.617 2146,266C2146,271.828 2143.06,276.975 2138.59,280.038C2132.26,278.266 2125.34,277.973 2119.99,280.416Z" style="fill:white;"/>
                </g>
                <g transform="matrix(5.62413,-9.6215e-17,-3.05174e-16,5.62413,-11188.1,-959.51)">
                    <path d="M2127.48,266.512C2128.73,262.731 2132.3,260 2136.5,260C2141.74,260 2146,264.257 2146,269.5C2146,274.743 2141.74,279 2136.5,279C2132.3,279 2128.73,276.269 2127.48,272.488L2133.36,269.5L2127.48,266.512Z" style="fill:rgb(78,78,220);"/>
                </g>
                <g transform="matrix(5.62413,-9.6215e-17,-3.05174e-16,5.62413,-10920.9,-959.51)">
                    <path d="M2127.4,266.781C2128.57,262.861 2132.2,260 2136.5,260C2141.74,260 2146,264.257 2146,269.5C2146,274.743 2141.74,279 2136.5,279C2132.2,279 2128.57,276.139 2127.4,272.219L2132.74,269.5L2127.4,266.781Z" style="fill:rgb(78,78,220);"/>
                </g>
                <g transform="matrix(5.62413,-9.6215e-17,-4.59972e-16,6.60224,-11188.1,-1238.52)">
                    <path d="M2160,291C2183.18,291 2202,291.153 2202,297.5C2202,303.847 2183.18,314 2160,314C2136.82,314 2118,303.847 2118,297.5C2118,291.153 2136.82,291 2160,291Z" style="fill:rgb(121,18,121);"/>
                    <clipPath id="_clip1">
                        <path d="M2160,291C2183.18,291 2202,291.153 2202,297.5C2202,303.847 2183.18,314 2160,314C2136.82,314 2118,303.847 2118,297.5C2118,291.153 2136.82,291 2160,291Z"/>
                    </clipPath>
                    <g clip-path="url(#_clip1)">
                        <g transform="matrix(1,0,0,0.851852,536.899,20.454)">
                            <path d="M1618,309.426L1618,322.845C1618,325.288 1616.02,327.271 1613.57,327.271L1600.3,327.271C1597.85,327.271 1595.87,325.288 1595.87,322.845L1595.87,309.426C1595.87,306.983 1597.85,305 1600.3,305L1613.57,305C1616.02,305 1618,306.983 1618,309.426Z" style="fill:white;"/>
                        </g>
                        <g transform="matrix(1,0,0,0.851852,569.233,20.454)">
                            <path d="M1618,309.426L1618,322.845C1618,325.288 1616.02,327.271 1613.57,327.271L1600.3,327.271C1597.85,327.271 1595.87,325.288 1595.87,322.845L1595.87,309.426C1595.87,306.983 1597.85,305 1600.3,305L1613.57,305C1616.02,305 1618,306.983 1618,309.426Z" style="fill:white;"/>
                        </g>
                    </g>
                </g>
            </g>
        </g>
    </g>
</svg>
