<?xml version="1.0" encoding="UTF-8" standalone="no"?>
<!DOCTYPE svg PUBLIC "-//W3C//DTD SVG 1.1//EN" "http://www.w3.org/Graphics/SVG/1.1/DTD/svg11.dtd">
<svg width="100%" height="100%" viewBox="0 0 87 192" version="1.1" xmlns="http://www.w3.org/2000/svg" xmlns:xlink="http://www.w3.org/1999/xlink" xml:space="preserve" xmlns:serif="http://www.serif.com/" style="fill-rule:evenodd;clip-rule:evenodd;stroke-linejoin:round;stroke-miterlimit:2;">
    <g transform="matrix(1,0,0,1,-357.869,-640)">
        <g id="btn_interact" transform="matrix(1,0,0,1,64,-224)">
            <g transform="matrix(3.60405,0,0,3.60405,-1407.03,-2225.99)">
                <g transform="matrix(1,0,0,1,467.96,881.628)">
                    <path d="M22.55,6.75C22.017,6.717 21.667,6.883 21.5,7.25L21.4,7.5L21.35,7.6C21.217,9.433 20.5,10.7 19.2,11.4C18.033,9.767 17.283,7.967 16.95,6L16.8,5.45C16.4,4.583 15.783,4.267 14.95,4.5L14.9,4.5C14.167,4.667 13.9,5.133 14.1,5.9L14.65,8C15.283,10.367 15.283,12.167 14.65,13.4C13.083,12.267 11.833,11 10.9,9.6L10.1,8.3C9.5,7.467 8.8,7.3 8,7.8L7.95,7.8C7.583,8 7.35,8.217 7.25,8.45C7.217,8.683 7.3,8.967 7.5,9.3L7.55,9.35C9.283,12.117 10.683,15.1 11.75,18.3C11.883,18.733 11.883,19.183 11.75,19.65L10.95,20.65L9.65,20.95C8.783,20.85 7.933,20.85 7.1,20.95C6.8,20.983 6.55,21.117 6.35,21.35L6.3,21.45C6.033,21.75 5.933,22.1 6,22.5L6,22.45C6.067,22.817 6.267,23.133 6.6,23.4L6.7,23.5L7.5,23.75L7.65,23.7L10.85,23.8C12.35,24.067 13.733,24.583 15,25.35C16.133,26.05 17.25,26.567 18.35,26.9L21.75,26.6L21.8,26.55C23.433,26.017 24.617,24.967 25.35,23.4L25.55,22.85C26.15,20.95 26.017,19.067 25.15,17.2L25.15,17.15C24.25,14.983 23.867,12.067 24,8.4L24,8.35C23.933,7.35 23.45,6.817 22.55,6.75M22.7,4.75C24.767,4.85 25.867,6.017 26,8.25L26,8.5C25.867,11.8 26.2,14.433 27,16.4L27.05,16.55C28.05,18.817 28.183,21.117 27.45,23.45L27.25,24.05L27.15,24.25C26.217,26.25 24.75,27.617 22.75,28.35L22.45,28.5C20.95,29 19.467,29.133 18,28.9L17.8,28.85C16.533,28.45 15.25,27.85 13.95,27.05L14,27.05C12.933,26.417 11.767,26 10.5,25.8L10.4,25.75L8.1,25.7L7.75,25.75C6.85,25.85 6.067,25.617 5.4,25.05L5.2,24.85L5.35,24.95C4.65,24.417 4.233,23.783 4.1,23.05L4.05,22.85L4.05,22.8C3.883,22 4.017,21.283 4.45,20.65L4.85,20.05C5.383,19.417 6.067,19.05 6.9,18.95L6.9,19C7.867,18.867 8.85,18.867 9.85,19L9.8,18.95L9.85,18.95C8.917,16.117 7.717,13.483 6.25,11.05C5.883,10.783 5.65,10.417 5.55,9.95C5.217,9.283 5.133,8.7 5.3,8.2L5.4,7.65C5.6,7.05 6.133,6.517 7,6.05L7.15,6C8.883,4.933 10.417,5.317 11.75,7.15L11.8,7.25L12.6,8.5L12.8,8.85L12.75,8.55L12.75,8.5L12.2,6.4C11.933,5.4 12.017,4.6 12.45,4C12.75,3.267 13.417,2.783 14.45,2.55L14.55,2.55C16.383,2.017 17.75,2.7 18.65,4.6L18.75,4.95L18.9,5.5L18.95,5.7L19.35,7.35L19.4,7.5C19.4,7.167 19.45,6.867 19.55,6.6L19.7,6.45L19.8,6.2C20.233,5.133 21.2,4.65 22.7,4.75" style="fill-rule:nonzero;"/>
                </g>
                <g transform="matrix(1,0,0,1,467.96,881.628)">
                    <path d="M22.55,6.75C23.45,6.817 23.933,7.35 24,8.35L24,8.4C23.867,12.067 24.25,14.983 25.15,17.15L25.15,17.2C26.017,19.067 26.15,20.95 25.55,22.85L25.35,23.4C24.617,24.967 23.433,26.017 21.8,26.55L21.75,26.6L18.35,26.9C17.25,26.567 16.133,26.05 15,25.35C13.733,24.583 12.35,24.067 10.85,23.8L7.65,23.7L7.5,23.75L6.7,23.5L6.6,23.4C6.267,23.133 6.067,22.817 6,22.45L6,22.5C5.933,22.1 6.033,21.75 6.3,21.45L6.35,21.35C6.55,21.117 6.8,20.983 7.1,20.95C7.933,20.85 8.783,20.85 9.65,20.95L10.95,20.65L11.75,19.65C11.883,19.183 11.883,18.733 11.75,18.3C10.683,15.1 9.283,12.117 7.55,9.35L7.5,9.3C7.3,8.967 7.217,8.683 7.25,8.45C7.35,8.217 7.583,8 7.95,7.8L8,7.8C8.8,7.3 9.5,7.467 10.1,8.3L10.9,9.6C11.833,11 13.083,12.267 14.65,13.4C15.283,12.167 15.283,10.367 14.65,8L14.1,5.9C13.9,5.133 14.167,4.667 14.9,4.5L14.95,4.5C15.783,4.267 16.4,4.583 16.8,5.45L16.95,6C17.283,7.967 18.033,9.767 19.2,11.4C20.5,10.7 21.217,9.433 21.35,7.6L21.4,7.5L21.5,7.25C21.667,6.883 22.017,6.717 22.55,6.75" style="fill:rgb(0,250,244);fill-rule:nonzero;"/>
                </g>
            </g>
            <g transform="matrix(3.60405,0,0,3.60405,-1407.03,-2321.99)">
                <g transform="matrix(1,0,0,1,467.96,881.628)">
                    <path d="M22.55,6.75C22.017,6.717 21.667,6.883 21.5,7.25L21.4,7.5L21.35,7.6C21.217,9.433 20.5,10.7 19.2,11.4C18.033,9.767 17.283,7.967 16.95,6L16.8,5.45C16.4,4.583 15.783,4.267 14.95,4.5L14.9,4.5C14.167,4.667 13.9,5.133 14.1,5.9L14.65,8C15.283,10.367 15.283,12.167 14.65,13.4C13.083,12.267 11.833,11 10.9,9.6L10.1,8.3C9.5,7.467 8.8,7.3 8,7.8L7.95,7.8C7.583,8 7.35,8.217 7.25,8.45C7.217,8.683 7.3,8.967 7.5,9.3L7.55,9.35C9.283,12.117 10.683,15.1 11.75,18.3C11.883,18.733 11.883,19.183 11.75,19.65L10.95,20.65L9.65,20.95C8.783,20.85 7.933,20.85 7.1,20.95C6.8,20.983 6.55,21.117 6.35,21.35L6.3,21.45C6.033,21.75 5.933,22.1 6,22.5L6,22.45C6.067,22.817 6.267,23.133 6.6,23.4L6.7,23.5L7.5,23.75L7.65,23.7L10.85,23.8C12.35,24.067 13.733,24.583 15,25.35C16.133,26.05 17.25,26.567 18.35,26.9L21.75,26.6L21.8,26.55C23.433,26.017 24.617,24.967 25.35,23.4L25.55,22.85C26.15,20.95 26.017,19.067 25.15,17.2L25.15,17.15C24.25,14.983 23.867,12.067 24,8.4L24,8.35C23.933,7.35 23.45,6.817 22.55,6.75M22.7,4.75C24.767,4.85 25.867,6.017 26,8.25L26,8.5C25.867,11.8 26.2,14.433 27,16.4L27.05,16.55C28.05,18.817 28.183,21.117 27.45,23.45L27.25,24.05L27.15,24.25C26.217,26.25 24.75,27.617 22.75,28.35L22.45,28.5C20.95,29 19.467,29.133 18,28.9L17.8,28.85C16.533,28.45 15.25,27.85 13.95,27.05L14,27.05C12.933,26.417 11.767,26 10.5,25.8L10.4,25.75L8.1,25.7L7.75,25.75C6.85,25.85 6.067,25.617 5.4,25.05L5.2,24.85L5.35,24.95C4.65,24.417 4.233,23.783 4.1,23.05L4.05,22.85L4.05,22.8C3.883,22 4.017,21.283 4.45,20.65L4.85,20.05C5.383,19.417 6.067,19.05 6.9,18.95L6.9,19C7.867,18.867 8.85,18.867 9.85,19L9.8,18.95L9.85,18.95C8.917,16.117 7.717,13.483 6.25,11.05C5.883,10.783 5.65,10.417 5.55,9.95C5.217,9.283 5.133,8.7 5.3,8.2L5.4,7.65C5.6,7.05 6.133,6.517 7,6.05L7.15,6C8.883,4.933 10.417,5.317 11.75,7.15L11.8,7.25L12.6,8.5L12.8,8.85L12.75,8.55L12.75,8.5L12.2,6.4C11.933,5.4 12.017,4.6 12.45,4C12.75,3.267 13.417,2.783 14.45,2.55L14.55,2.55C16.383,2.017 17.75,2.7 18.65,4.6L18.75,4.95L18.9,5.5L18.95,5.7L19.35,7.35L19.4,7.5C19.4,7.167 19.45,6.867 19.55,6.6L19.7,6.45L19.8,6.2C20.233,5.133 21.2,4.65 22.7,4.75" style="fill-rule:nonzero;"/>
                </g>
                <g transform="matrix(1,0,0,1,467.96,881.628)">
                    <path d="M22.55,6.75C23.45,6.817 23.933,7.35 24,8.35L24,8.4C23.867,12.067 24.25,14.983 25.15,17.15L25.15,17.2C26.017,19.067 26.15,20.95 25.55,22.85L25.35,23.4C24.617,24.967 23.433,26.017 21.8,26.55L21.75,26.6L18.35,26.9C17.25,26.567 16.133,26.05 15,25.35C13.733,24.583 12.35,24.067 10.85,23.8L7.65,23.7L7.5,23.75L6.7,23.5L6.6,23.4C6.267,23.133 6.067,22.817 6,22.45L6,22.5C5.933,22.1 6.033,21.75 6.3,21.45L6.35,21.35C6.55,21.117 6.8,20.983 7.1,20.95C7.933,20.85 8.783,20.85 9.65,20.95L10.95,20.65L11.75,19.65C11.883,19.183 11.883,18.733 11.75,18.3C10.683,15.1 9.283,12.117 7.55,9.35L7.5,9.3C7.3,8.967 7.217,8.683 7.25,8.45C7.35,8.217 7.583,8 7.95,7.8L8,7.8C8.8,7.3 9.5,7.467 10.1,8.3L10.9,9.6C11.833,11 13.083,12.267 14.65,13.4C15.283,12.167 15.283,10.367 14.65,8L14.1,5.9C13.9,5.133 14.167,4.667 14.9,4.5L14.95,4.5C15.783,4.267 16.4,4.583 16.8,5.45L16.95,6C17.283,7.967 18.033,9.767 19.2,11.4C20.5,10.7 21.217,9.433 21.35,7.6L21.4,7.5L21.5,7.25C21.667,6.883 22.017,6.717 22.55,6.75" style="fill:white;fill-rule:nonzero;"/>
                </g>
            </g>
        </g>
    </g>
</svg>
