<?xml version="1.0" encoding="UTF-8" standalone="no"?>
<!DOCTYPE svg PUBLIC "-//W3C//DTD SVG 1.1//EN" "http://www.w3.org/Graphics/SVG/1.1/DTD/svg11.dtd">
<svg width="100%" height="100%" viewBox="0 0 82 192" version="1.1" xmlns="http://www.w3.org/2000/svg" xmlns:xlink="http://www.w3.org/1999/xlink" xml:space="preserve" xmlns:serif="http://www.serif.com/" style="fill-rule:evenodd;clip-rule:evenodd;stroke-linejoin:round;stroke-miterlimit:2;">
    <g transform="matrix(1,0,0,1,-360.008,-640)">
        <g id="btn_interact" transform="matrix(1,0,0,1,-65.9919,255.992)">
            <g id="interact" transform="matrix(1,0,0,1,84.3667,4.56674)">
                <g transform="matrix(1.0094,0,0,1.01088,332.846,327.865)">
                    <path d="M25.444,186.21L24.09,166.679L24.045,165.62L24.302,163.113L25.035,160.769L26.185,158.661L27.697,156.832L29.527,155.319L31.639,154.167L33.987,153.432L36.5,153.175L38.871,153.404L38.941,153.424L39.069,153.073L40.257,151.09L41.771,149.378L43.573,147.969L45.626,146.901L47.889,146.223L50.3,145.987L52.711,146.223L54.974,146.901L57.027,147.969L58.829,149.378L60.343,151.09L60.831,151.905L61.365,151.643L63.53,151.028L65.823,150.815L68.334,151.072L70.68,151.806L72.79,152.957L74.619,154.468L76.129,156.296L77.278,158.403L78.011,160.744L78.268,163.25L78.194,164.603L78.182,164.706L78.16,164.881L79.112,164.897L81.39,165.373C81.457,165.393 81.523,165.414 81.589,165.436L83.737,166.395L85.617,167.712L87.189,169.32L88.429,171.165L89.317,173.202L89.827,175.39L89.925,177.68C89.925,177.68 89.599,179.874 89.595,179.937L82.926,207.857C82.891,208 82.852,208.143 82.809,208.284C82.766,208.424 81.962,211.46 81.829,211.904L82.059,211.183C77.729,228.118 69.775,240.925 52.64,240.925C44.882,240.925 38.155,241.606 28.93,233.083C28.852,233.011 28.776,232.937 28.702,232.861C10.588,214.515 10.034,204.454 8.87,199.222C8.759,198.721 8.704,198.21 8.705,197.697C8.717,194.258 9.418,191.314 10.85,189.279L12.291,187.646L14.13,186.33L16.155,185.475L18.161,185.057L20.546,184.975L22.871,185.305L25.069,186.015L25.444,186.21Z"/>
                </g>
                <g transform="matrix(1.0094,0,0,1.01088,332.846,327.865)">
                    <path d="M33.64,228C41,234.8 46.45,234 52.64,234C66.33,234 71.88,223 75.34,209.47C75.39,209.34 76.14,206.38 76.18,206.25L82.85,178.33C83.517,175.652 81.996,172.878 79.38,172C76.47,171.12 74.1,172.54 73.21,175.4L69,188.93L68.23,188.46L71.3,163.85C71.322,163.651 71.333,163.45 71.333,163.25C71.333,160.227 68.846,157.74 65.823,157.74C63.071,157.74 60.719,159.801 60.36,162.53L57.6,184.74C57.007,184.633 56.407,184.54 55.8,184.46L55.8,158.09C55.626,155.198 53.198,152.912 50.3,152.912C47.402,152.912 44.974,155.198 44.8,158.09L44.8,184.49L43.8,184.7L42,165.15C41.757,162.309 39.351,160.1 36.5,160.1C33.472,160.1 30.98,162.592 30.98,165.62C30.98,165.777 30.987,165.934 31,166.09L33.59,203.46C32.31,206.7 29.44,207.3 26.15,196.46C25.157,193.449 22.147,191.542 19,191.93C16,192.29 15.65,194.72 15.64,197.72C16.69,202.44 17.3,211.45 33.64,228Z" style="fill:rgb(0,250,244);"/>
                </g>
            </g>
            <g id="interact1" serif:id="interact" transform="matrix(1,0,0,1,84.3667,-91.4333)">
                <g transform="matrix(1.0094,0,0,1.01088,332.846,327.865)">
                    <path d="M25.444,186.21L24.09,166.679L24.045,165.62L24.302,163.113L25.035,160.769L26.185,158.661L27.697,156.832L29.527,155.319L31.639,154.167L33.987,153.432L36.5,153.175L38.871,153.404L38.941,153.424L39.069,153.073L40.257,151.09L41.771,149.378L43.573,147.969L45.626,146.901L47.889,146.223L50.3,145.987L52.711,146.223L54.974,146.901L57.027,147.969L58.829,149.378L60.343,151.09L60.831,151.905L61.365,151.643L63.53,151.028L65.823,150.815L68.334,151.072L70.68,151.806L72.79,152.957L74.619,154.468L76.129,156.296L77.278,158.403L78.011,160.744L78.268,163.25L78.194,164.603L78.182,164.706L78.16,164.881L79.112,164.897L81.39,165.373C81.457,165.393 81.523,165.414 81.589,165.436L83.737,166.395L85.617,167.712L87.189,169.32L88.429,171.165L89.317,173.202L89.827,175.39L89.925,177.68C89.925,177.68 89.599,179.874 89.595,179.937L82.926,207.857C82.891,208 82.852,208.143 82.809,208.284C82.766,208.424 81.962,211.46 81.829,211.904L82.059,211.183C77.729,228.118 69.775,240.925 52.64,240.925C44.882,240.925 38.155,241.606 28.93,233.083C28.852,233.011 28.776,232.937 28.702,232.861C10.588,214.515 10.034,204.454 8.87,199.222C8.759,198.721 8.704,198.21 8.705,197.697C8.717,194.258 9.418,191.314 10.85,189.279L12.291,187.646L14.13,186.33L16.155,185.475L18.161,185.057L20.546,184.975L22.871,185.305L25.069,186.015L25.444,186.21Z"/>
                </g>
                <g transform="matrix(1.0094,0,0,1.01088,332.846,327.865)">
                    <path d="M33.64,228C41,234.8 46.45,234 52.64,234C66.33,234 71.88,223 75.34,209.47C75.39,209.34 76.14,206.38 76.18,206.25L82.85,178.33C83.517,175.652 81.996,172.878 79.38,172C76.47,171.12 74.1,172.54 73.21,175.4L69,188.93L68.23,188.46L71.3,163.85C71.322,163.651 71.333,163.45 71.333,163.25C71.333,160.227 68.846,157.74 65.823,157.74C63.071,157.74 60.719,159.801 60.36,162.53L57.6,184.74C57.007,184.633 56.407,184.54 55.8,184.46L55.8,158.09C55.626,155.198 53.198,152.912 50.3,152.912C47.402,152.912 44.974,155.198 44.8,158.09L44.8,184.49L43.8,184.7L42,165.15C41.757,162.309 39.351,160.1 36.5,160.1C33.472,160.1 30.98,162.592 30.98,165.62C30.98,165.777 30.987,165.934 31,166.09L33.59,203.46C32.31,206.7 29.44,207.3 26.15,196.46C25.157,193.449 22.147,191.542 19,191.93C16,192.29 15.65,194.72 15.64,197.72C16.69,202.44 17.3,211.45 33.64,228Z" style="fill:white;"/>
                </g>
            </g>
        </g>
    </g>
</svg>
