<?xml version="1.0" encoding="UTF-8" standalone="no"?>
<!DOCTYPE svg PUBLIC "-//W3C//DTD SVG 1.1//EN" "http://www.w3.org/Graphics/SVG/1.1/DTD/svg11.dtd">
<svg width="100%" height="100%" viewBox="0 0 97 192" version="1.1" xmlns="http://www.w3.org/2000/svg" xmlns:xlink="http://www.w3.org/1999/xlink" xml:space="preserve" xmlns:serif="http://www.serif.com/" style="fill-rule:evenodd;clip-rule:evenodd;stroke-linejoin:round;stroke-miterlimit:2;">
    <g transform="matrix(1,0,0,1,-640.001,-639.999)">
        <g id="btn_inventory">
            <g transform="matrix(1.01812,0,0,1.01812,52.6945,-240.523)">
                <g id="btn_inventory1" serif:id="btn_inventory">
                    <g>
                        <g transform="matrix(0.845262,0,0,0.845262,581.746,869.736)">
                            <path d="M17.004,14.09L17.004,11.934C17.004,2.169 24.949,-5.777 34.715,-5.777L65.285,-5.777C75.05,-5.777 82.996,2.169 82.996,11.934L82.996,14.094L92.261,14.094L94.983,14.37L97.533,15.165L99.83,16.414L101.82,18.059L103.463,20.05L104.711,22.345L105.505,24.893L105.781,27.613L105.781,48.125C105.781,49.048 105.628,49.946 105.341,50.791C105.629,51.638 105.781,52.537 105.781,53.456L105.781,92.257C105.781,92.848 105.72,93.424 105.602,93.98L105.501,94.976L104.707,97.524L103.459,99.82L101.816,101.811L99.826,103.455L97.529,104.705L94.979,105.499L92.257,105.776L7.734,105.776L5.014,105.5L2.466,104.706L0.171,103.458L-1.82,101.815L-3.465,99.825L-4.714,97.528L-5.509,94.978L-5.785,92.256L-5.785,53.315C-5.785,52.402 -5.635,51.509 -5.35,50.666C-5.634,49.827 -5.786,48.934 -5.786,48.016L-5.786,27.61L-5.51,24.89L-4.716,22.341L-3.468,20.044L-1.824,18.052L0.168,16.408L2.465,15.16L5.014,14.366L7.734,14.09L17.004,14.09ZM17.004,22.372L17.004,22.112C17.001,22.198 17,22.285 17,22.372L7.734,22.372C4.847,22.372 2.496,24.723 2.496,27.61L2.496,48.016C13.113,52.571 23.488,55.61 33.629,57.223L33.629,57.016C33.629,51.43 38.172,46.887 43.758,46.887L56.238,46.887C61.824,46.887 66.367,51.43 66.367,57.016L66.367,57.485C76.98,55.926 87.352,52.766 97.5,48.125L97.5,27.613C97.5,24.731 95.148,22.375 92.261,22.375L74.714,22.375L74.714,11.934C74.714,6.735 70.484,2.504 65.285,2.504L34.715,2.504C29.516,2.504 25.285,6.735 25.285,11.934L25.285,22.375L25.281,22.372L17.004,22.372ZM66.336,22.375L33.672,22.375L33.672,11.934C33.672,11.364 34.149,10.887 34.719,10.887L65.289,10.887C65.859,10.887 66.336,11.364 66.336,11.934L66.336,22.375ZM43.762,51.777C40.875,51.777 38.524,54.129 38.524,57.015L38.524,65.508C38.524,68.394 40.879,70.746 43.762,70.746L56.242,70.746C59.129,70.746 61.48,68.39 61.48,65.508L61.48,57.015C61.48,54.129 59.129,51.777 56.242,51.777L43.762,51.777ZM91.085,97.495L92.257,97.495C95.144,97.495 97.496,95.139 97.496,92.256L97.5,92.257L97.5,53.456C87.352,57.897 76.98,60.913 66.367,62.405L66.367,65.511C66.367,71.097 61.824,75.64 56.238,75.64L43.758,75.64C38.172,75.64 33.629,71.097 33.629,65.511L33.629,62.159C23.457,60.612 13.082,57.69 2.496,53.315L2.496,92.256C2.496,95.143 4.851,97.495 7.734,97.495L91.081,97.495C92.391,99.097 94.29,100.199 96.447,100.472C96.473,100.475 96.499,100.478 96.525,100.482C97.147,100.559 97.496,100.538 97.496,100.538L96.195,100.435C94.143,100.111 92.343,99.033 91.085,97.495Z"/>
                        </g>
                        <g transform="matrix(0.845262,0,0,0.845262,581.746,869.736)">
                            <path d="M25.285,22.375L25.285,11.934C25.285,6.735 29.516,2.504 34.715,2.504L65.285,2.504C70.484,2.504 74.714,6.735 74.714,11.934L74.714,22.375L92.261,22.375C95.148,22.375 97.5,24.731 97.5,27.613L97.5,48.125C87.352,52.766 76.98,55.926 66.367,57.485L66.367,57.016C66.367,51.43 61.824,46.887 56.238,46.887L43.758,46.887C38.172,46.887 33.629,51.43 33.629,57.016L33.629,57.223C23.488,55.61 13.113,52.571 2.496,48.016L2.496,27.61C2.496,24.723 4.847,22.372 7.734,22.372L25.281,22.372L25.285,22.375ZM66.336,22.375L66.336,11.934C66.336,11.364 65.859,10.887 65.289,10.887L34.719,10.887C34.149,10.887 33.672,11.364 33.672,11.934L33.672,22.375L66.34,22.375L66.336,22.375ZM43.762,51.777C40.875,51.777 38.524,54.129 38.524,57.015L38.524,65.508C38.524,68.394 40.879,70.746 43.762,70.746L56.242,70.746C59.129,70.746 61.48,68.39 61.48,65.508L61.48,57.015C61.48,54.129 59.129,51.777 56.242,51.777L43.762,51.777ZM97.5,92.257L97.5,53.456C87.352,57.897 76.98,60.913 66.367,62.405L66.367,65.511C66.367,71.097 61.824,75.64 56.238,75.64L43.758,75.64C38.172,75.64 33.629,71.097 33.629,65.511L33.629,62.159C23.457,60.612 13.082,57.69 2.496,53.315L2.496,92.256C2.496,95.143 4.852,97.495 7.734,97.495L92.257,97.495C95.144,97.495 97.496,95.139 97.496,92.256L97.5,92.257Z" style="fill:white;"/>
                        </g>
                    </g>
                </g>
            </g>
            <g transform="matrix(1.01812,0,0,1.01812,52.6945,-144.55)">
                <g id="btn_inventory2" serif:id="btn_inventory">
                    <g>
                        <g transform="matrix(0.845262,0,0,0.845262,581.746,869.736)">
                            <path d="M17.004,14.09L17.004,11.934C17.004,2.169 24.949,-5.777 34.715,-5.777L65.285,-5.777C75.05,-5.777 82.996,2.169 82.996,11.934L82.996,14.094L92.261,14.094L94.983,14.37L97.533,15.165L99.83,16.414L101.82,18.059L103.463,20.05L104.711,22.345L105.505,24.893L105.781,27.613L105.781,48.125C105.781,49.048 105.628,49.946 105.341,50.791C105.629,51.638 105.781,52.537 105.781,53.456L105.781,92.257C105.781,92.848 105.72,93.424 105.602,93.98L105.501,94.976L104.707,97.524L103.459,99.82L101.816,101.811L99.826,103.455L97.529,104.705L94.979,105.499L92.257,105.776L7.734,105.776L5.014,105.5L2.466,104.706L0.171,103.458L-1.82,101.815L-3.465,99.825L-4.714,97.528L-5.509,94.978L-5.785,92.256L-5.785,53.315C-5.785,52.402 -5.635,51.509 -5.35,50.666C-5.634,49.827 -5.786,48.934 -5.786,48.016L-5.786,27.61L-5.51,24.89L-4.716,22.341L-3.468,20.044L-1.824,18.052L0.168,16.408L2.465,15.16L5.014,14.366L7.734,14.09L17.004,14.09ZM17.004,22.372L17.004,22.112C17.001,22.198 17,22.285 17,22.372L7.734,22.372C4.847,22.372 2.496,24.723 2.496,27.61L2.496,48.016C13.113,52.571 23.488,55.61 33.629,57.223L33.629,57.016C33.629,51.43 38.172,46.887 43.758,46.887L56.238,46.887C61.824,46.887 66.367,51.43 66.367,57.016L66.367,57.485C76.98,55.926 87.352,52.766 97.5,48.125L97.5,27.613C97.5,24.731 95.148,22.375 92.261,22.375L74.714,22.375L74.714,11.934C74.714,6.735 70.484,2.504 65.285,2.504L34.715,2.504C29.516,2.504 25.285,6.735 25.285,11.934L25.285,22.375L25.281,22.372L17.004,22.372ZM66.336,22.375L33.672,22.375L33.672,11.934C33.672,11.364 34.149,10.887 34.719,10.887L65.289,10.887C65.859,10.887 66.336,11.364 66.336,11.934L66.336,22.375ZM43.762,51.777C40.875,51.777 38.524,54.129 38.524,57.015L38.524,65.508C38.524,68.394 40.879,70.746 43.762,70.746L56.242,70.746C59.129,70.746 61.48,68.39 61.48,65.508L61.48,57.015C61.48,54.129 59.129,51.777 56.242,51.777L43.762,51.777ZM91.085,97.495L92.257,97.495C95.144,97.495 97.496,95.139 97.496,92.256L97.5,92.257L97.5,53.456C87.352,57.897 76.98,60.913 66.367,62.405L66.367,65.511C66.367,71.097 61.824,75.64 56.238,75.64L43.758,75.64C38.172,75.64 33.629,71.097 33.629,65.511L33.629,62.159C23.457,60.612 13.082,57.69 2.496,53.315L2.496,92.256C2.496,95.143 4.851,97.495 7.734,97.495L91.081,97.495C92.391,99.097 94.29,100.199 96.447,100.472C96.473,100.475 96.499,100.478 96.525,100.482C97.147,100.559 97.496,100.538 97.496,100.538L96.195,100.435C94.143,100.111 92.343,99.033 91.085,97.495Z"/>
                        </g>
                        <g transform="matrix(0.845262,0,0,0.845262,581.746,869.736)">
                            <path d="M25.285,22.375L25.285,11.934C25.285,6.735 29.516,2.504 34.715,2.504L65.285,2.504C70.484,2.504 74.714,6.735 74.714,11.934L74.714,22.375L92.261,22.375C95.148,22.375 97.5,24.731 97.5,27.613L97.5,48.125C87.352,52.766 76.98,55.926 66.367,57.485L66.367,57.016C66.367,51.43 61.824,46.887 56.238,46.887L43.758,46.887C38.172,46.887 33.629,51.43 33.629,57.016L33.629,57.223C23.488,55.61 13.113,52.571 2.496,48.016L2.496,27.61C2.496,24.723 4.847,22.372 7.734,22.372L25.281,22.372L25.285,22.375ZM66.336,22.375L66.336,11.934C66.336,11.364 65.859,10.887 65.289,10.887L34.719,10.887C34.149,10.887 33.672,11.364 33.672,11.934L33.672,22.375L66.34,22.375L66.336,22.375ZM43.762,51.777C40.875,51.777 38.524,54.129 38.524,57.015L38.524,65.508C38.524,68.394 40.879,70.746 43.762,70.746L56.242,70.746C59.129,70.746 61.48,68.39 61.48,65.508L61.48,57.015C61.48,54.129 59.129,51.777 56.242,51.777L43.762,51.777ZM97.5,92.257L97.5,53.456C87.352,57.897 76.98,60.913 66.367,62.405L66.367,65.511C66.367,71.097 61.824,75.64 56.238,75.64L43.758,75.64C38.172,75.64 33.629,71.097 33.629,65.511L33.629,62.159C23.457,60.612 13.082,57.69 2.496,53.315L2.496,92.256C2.496,95.143 4.852,97.495 7.734,97.495L92.257,97.495C95.144,97.495 97.496,95.139 97.496,92.256L97.5,92.257Z" style="fill:rgb(0,250,244);"/>
                        </g>
                    </g>
                </g>
            </g>
        </g>
    </g>
</svg>
