<?xml version="1.0" encoding="UTF-8" standalone="no"?>
<!DOCTYPE svg PUBLIC "-//W3C//DTD SVG 1.1//EN" "http://www.w3.org/Graphics/SVG/1.1/DTD/svg11.dtd">
<svg width="100%" height="100%" viewBox="0 0 64 192" version="1.1" xmlns="http://www.w3.org/2000/svg" xmlns:xlink="http://www.w3.org/1999/xlink" xml:space="preserve" xmlns:serif="http://www.serif.com/" style="fill-rule:evenodd;clip-rule:evenodd;stroke-linejoin:round;stroke-miterlimit:2;">
    <g transform="matrix(1,0,0,1,-128,-639.972)">
        <g id="btn_walk" transform="matrix(1,0,0,1,31.4164,0)">
            <g transform="matrix(0.887619,0,0,0.879526,84.2061,643.973)">
                <path d="M41.45,62.05L49.55,70.15C51.483,72.084 52.114,74.967 51.164,77.531L44.164,96.431L44.141,96.492L42.264,99.783L39.578,102.273L36.326,103.846L32.7,104.4L28.686,103.741C28.613,103.716 28.541,103.691 28.469,103.664L26.258,102.583L24.35,101.119L22.792,99.348L21.613,97.333L20.835,95.128L20.491,92.784L20.615,90.368L21.236,87.969L21.239,87.961L29.939,64.561C30.769,62.327 32.68,60.669 35.008,60.161C37.337,59.653 39.764,60.365 41.45,62.05ZM36.5,67L27.8,90.4C26.8,93.1 28.2,96.1 30.9,97.1C31.5,97.3 32.1,97.4 32.7,97.4C34.8,97.4 36.8,96.1 37.6,94L44.6,75.1L36.5,67Z"/>
                <path d="M69.204,31.607L76.253,32.68L76.306,32.688L78.539,33.275L80.576,34.27L82.356,35.62L83.832,37.273L84.968,39.184L85.721,41.304L86.048,43.573L85.912,45.906L85.325,48.139L84.33,50.176L82.98,51.956L81.327,53.432L79.416,54.568L77.296,55.321L75.027,55.648C75.027,55.648 72.797,55.518 72.747,55.52L63.547,54.12L63.449,54.105C62.134,53.885 60.856,53.532 59.637,53.053L58.154,57.754L63.35,62.95C65.232,64.832 66.813,67.333 67.754,69.842L67.823,70.032C67.823,70.032 74.011,88.106 74.064,88.269L74.688,90.721L74.788,93.18L74.401,95.546L73.574,97.753L72.345,99.752L70.738,101.493L68.78,102.916L66.514,103.941L62.6,104.6L58.857,104.011L55.561,102.372L52.9,99.851L51.059,96.592C51.03,96.518 51.003,96.443 50.977,96.368L45.095,79.188L31.45,65.45C29.736,63.736 28.497,61.729 27.749,59.578L25.4,59.9L23.15,59.667L20.543,58.834C20.34,58.747 20.142,58.651 19.948,58.545L18.046,57.249L16.467,55.639L15.253,53.792L14.42,51.778L13.98,49.653L13.945,47.468L14.328,45.283L15.139,43.17L15.194,43.062L19.994,33.862L20.045,33.766C21.939,30.27 24.71,27.36 28.06,25.321L28.122,25.283C42.187,16.92 44.313,17.788 46.089,17.917L53.495,18.41C56.477,18.53 59.79,18.222 69.204,31.607ZM21.4,46.3C20.3,48.5 21.1,51.2 23.3,52.4C24,52.7 24.7,52.9 25.4,52.9C27,52.9 28.6,52 29.4,50.5L34.2,41.3C34.7,40.4 35.4,39.6 36.3,39.1C36.7,38.9 37,38.7 37.3,38.5L34.1,52.7C33.5,55.5 34.3,58.4 36.4,60.5L51,75.2C51.1,75.4 51.2,75.5 51.3,75.7L57.6,94.1C58.4,96.2 60.4,97.6 62.6,97.6C63.2,97.6 63.7,97.5 64.3,97.3C67,96.4 68.5,93.4 67.5,90.7L61.2,72.3C60.6,70.7 59.6,69.1 58.4,67.9L50.2,59.7L56.1,41C56.5,41.5 56.8,42 57.2,42.6C58.9,45.1 61.6,46.7 64.6,47.2L73.8,48.6C76.3,49 78.6,47.3 79,44.8C79.4,42.3 77.7,40 75.2,39.6L66,38.2C65.4,38.1 65,37.8 64.7,37.4C57,26.1 55.4,25.5 53.1,25.4L45.6,24.9C44.2,24.8 42.8,24.7 31.7,31.3C29.4,32.7 27.5,34.7 26.2,37.1L21.4,46.3Z"/>
                <g transform="matrix(0.1082,-0.9941,0.9941,0.1082,32.8567,61.7876)">
                    <path d="M50.9,-4.5C60.338,-4.5 68,3.162 68,12.6C68,22.038 60.338,29.7 50.9,29.7C41.462,29.7 33.8,22.038 33.8,12.6C33.8,3.162 41.462,-4.5 50.9,-4.5ZM50.9,2.5C45.326,2.5 40.8,7.026 40.8,12.6C40.8,18.174 45.326,22.7 50.9,22.7C56.474,22.7 61,18.174 61,12.6C61,7.026 56.474,2.5 50.9,2.5Z"/>
                </g>
                <path d="M36.5,67L44.6,75.1L37.6,94C36.8,96.1 34.8,97.4 32.7,97.4C32.1,97.4 31.5,97.3 30.9,97.1C28.2,96.1 26.8,93.1 27.8,90.4L36.5,67Z" style="fill:white;fill-rule:nonzero;"/>
                <path d="M21.4,46.3L26.2,37.1C27.5,34.7 29.4,32.7 31.7,31.3C42.8,24.7 44.2,24.8 45.6,24.9L53.1,25.4C55.4,25.5 57,26.1 64.7,37.4C65,37.8 65.4,38.1 66,38.2L75.2,39.6C77.7,40 79.4,42.3 79,44.8C78.6,47.3 76.3,49 73.8,48.6L64.6,47.2C61.6,46.7 58.9,45.1 57.2,42.6C56.8,42 56.5,41.5 56.1,41L50.2,59.7L58.4,67.9C59.6,69.1 60.6,70.7 61.2,72.3L67.5,90.7C68.5,93.4 67,96.4 64.3,97.3C63.7,97.5 63.2,97.6 62.6,97.6C60.4,97.6 58.4,96.2 57.6,94.1L51.3,75.7C51.2,75.5 51.1,75.4 51,75.2L36.4,60.5C34.3,58.4 33.5,55.5 34.1,52.7L37.3,38.5C37,38.7 36.7,38.9 36.3,39.1C35.4,39.6 34.7,40.4 34.2,41.3L29.4,50.5C28.6,52 27,52.9 25.4,52.9C24.7,52.9 24,52.7 23.3,52.4C21.1,51.2 20.3,48.5 21.4,46.3Z" style="fill:white;fill-rule:nonzero;"/>
                <g transform="matrix(0.1082,-0.9941,0.9941,0.1082,32.8567,61.7876)">
                    <circle cx="50.9" cy="12.6" r="10.1" style="fill:white;"/>
                </g>
            </g>
            <g transform="matrix(0.887619,0,0,0.879526,84.2061,739.973)">
                <path d="M41.45,62.05L49.55,70.15C51.483,72.084 52.114,74.967 51.164,77.531L44.164,96.431L44.141,96.492L42.264,99.783L39.578,102.273L36.326,103.846L32.7,104.4L28.686,103.741C28.613,103.716 28.541,103.691 28.469,103.664L26.258,102.583L24.35,101.119L22.792,99.348L21.613,97.333L20.835,95.128L20.491,92.784L20.615,90.368L21.236,87.969L21.239,87.961L29.939,64.561C30.769,62.327 32.68,60.669 35.008,60.161C37.337,59.653 39.764,60.365 41.45,62.05ZM36.5,67L27.8,90.4C26.8,93.1 28.2,96.1 30.9,97.1C31.5,97.3 32.1,97.4 32.7,97.4C34.8,97.4 36.8,96.1 37.6,94L44.6,75.1L36.5,67Z"/>
                <path d="M69.204,31.607L76.253,32.68L76.306,32.688L78.539,33.275L80.576,34.27L82.356,35.62L83.832,37.273L84.968,39.184L85.721,41.304L86.048,43.573L85.912,45.906L85.325,48.139L84.33,50.176L82.98,51.956L81.327,53.432L79.416,54.568L77.296,55.321L75.027,55.648C75.027,55.648 72.797,55.518 72.747,55.52L63.547,54.12L63.449,54.105C62.134,53.885 60.856,53.532 59.637,53.053L58.154,57.754L63.35,62.95C65.232,64.832 66.813,67.333 67.754,69.842L67.823,70.032C67.823,70.032 74.011,88.106 74.064,88.269L74.688,90.721L74.788,93.18L74.401,95.546L73.574,97.753L72.345,99.752L70.738,101.493L68.78,102.916L66.514,103.941L62.6,104.6L58.857,104.011L55.561,102.372L52.9,99.851L51.059,96.592C51.03,96.518 51.003,96.443 50.977,96.368L45.095,79.188L31.45,65.45C29.736,63.736 28.497,61.729 27.749,59.578L25.4,59.9L23.15,59.667L20.543,58.834C20.34,58.747 20.142,58.651 19.948,58.545L18.046,57.249L16.467,55.639L15.253,53.792L14.42,51.778L13.98,49.653L13.945,47.468L14.328,45.283L15.139,43.17L15.194,43.062L19.994,33.862L20.045,33.766C21.939,30.27 24.71,27.36 28.06,25.321L28.122,25.283C42.187,16.92 44.313,17.788 46.089,17.917L53.495,18.41C56.477,18.53 59.79,18.222 69.204,31.607ZM21.4,46.3C20.3,48.5 21.1,51.2 23.3,52.4C24,52.7 24.7,52.9 25.4,52.9C27,52.9 28.6,52 29.4,50.5L34.2,41.3C34.7,40.4 35.4,39.6 36.3,39.1C36.7,38.9 37,38.7 37.3,38.5L34.1,52.7C33.5,55.5 34.3,58.4 36.4,60.5L51,75.2C51.1,75.4 51.2,75.5 51.3,75.7L57.6,94.1C58.4,96.2 60.4,97.6 62.6,97.6C63.2,97.6 63.7,97.5 64.3,97.3C67,96.4 68.5,93.4 67.5,90.7L61.2,72.3C60.6,70.7 59.6,69.1 58.4,67.9L50.2,59.7L56.1,41C56.5,41.5 56.8,42 57.2,42.6C58.9,45.1 61.6,46.7 64.6,47.2L73.8,48.6C76.3,49 78.6,47.3 79,44.8C79.4,42.3 77.7,40 75.2,39.6L66,38.2C65.4,38.1 65,37.8 64.7,37.4C57,26.1 55.4,25.5 53.1,25.4L45.6,24.9C44.2,24.8 42.8,24.7 31.7,31.3C29.4,32.7 27.5,34.7 26.2,37.1L21.4,46.3Z"/>
                <g transform="matrix(0.1082,-0.9941,0.9941,0.1082,32.8567,61.7876)">
                    <path d="M50.9,-4.5C60.338,-4.5 68,3.162 68,12.6C68,22.038 60.338,29.7 50.9,29.7C41.462,29.7 33.8,22.038 33.8,12.6C33.8,3.162 41.462,-4.5 50.9,-4.5ZM50.9,2.5C45.326,2.5 40.8,7.026 40.8,12.6C40.8,18.174 45.326,22.7 50.9,22.7C56.474,22.7 61,18.174 61,12.6C61,7.026 56.474,2.5 50.9,2.5Z"/>
                </g>
                <path d="M36.5,67L44.6,75.1L37.6,94C36.8,96.1 34.8,97.4 32.7,97.4C32.1,97.4 31.5,97.3 30.9,97.1C28.2,96.1 26.8,93.1 27.8,90.4L36.5,67Z" style="fill:rgb(0,250,244);fill-rule:nonzero;"/>
                <path d="M21.4,46.3L26.2,37.1C27.5,34.7 29.4,32.7 31.7,31.3C42.8,24.7 44.2,24.8 45.6,24.9L53.1,25.4C55.4,25.5 57,26.1 64.7,37.4C65,37.8 65.4,38.1 66,38.2L75.2,39.6C77.7,40 79.4,42.3 79,44.8C78.6,47.3 76.3,49 73.8,48.6L64.6,47.2C61.6,46.7 58.9,45.1 57.2,42.6C56.8,42 56.5,41.5 56.1,41L50.2,59.7L58.4,67.9C59.6,69.1 60.6,70.7 61.2,72.3L67.5,90.7C68.5,93.4 67,96.4 64.3,97.3C63.7,97.5 63.2,97.6 62.6,97.6C60.4,97.6 58.4,96.2 57.6,94.1L51.3,75.7C51.2,75.5 51.1,75.4 51,75.2L36.4,60.5C34.3,58.4 33.5,55.5 34.1,52.7L37.3,38.5C37,38.7 36.7,38.9 36.3,39.1C35.4,39.6 34.7,40.4 34.2,41.3L29.4,50.5C28.6,52 27,52.9 25.4,52.9C24.7,52.9 24,52.7 23.3,52.4C21.1,51.2 20.3,48.5 21.4,46.3Z" style="fill:rgb(0,250,244);fill-rule:nonzero;"/>
                <g transform="matrix(0.1082,-0.9941,0.9941,0.1082,32.8567,61.7876)">
                    <circle cx="50.9" cy="12.6" r="10.1" style="fill:rgb(0,250,244);"/>
                </g>
            </g>
        </g>
    </g>
</svg>
