<?xml version="1.0" encoding="UTF-8" standalone="no"?>
<!DOCTYPE svg PUBLIC "-//W3C//DTD SVG 1.1//EN" "http://www.w3.org/Graphics/SVG/1.1/DTD/svg11.dtd">
<svg width="100%" height="100%" viewBox="0 0 96 192" version="1.1" xmlns="http://www.w3.org/2000/svg" xmlns:xlink="http://www.w3.org/1999/xlink" xml:space="preserve" xmlns:serif="http://www.serif.com/" style="fill-rule:evenodd;clip-rule:evenodd;stroke-linejoin:round;stroke-miterlimit:2;">
    <g transform="matrix(1,0,0,1,-480,-640)">
        <g id="btn_talk" transform="matrix(1,0,0,1,61,-224)">
            <g transform="matrix(3.42857,0,0,3.47826,-1155.22,-2271.75)">
                <g transform="matrix(1,0,0,1,457.148,927.129)">
                    <path d="M8,4C5.333,4 4,5.333 4,8L4,20C4,22.667 5.333,24 8,24L12,24L15.3,27.3L16,27.6L16.7,27.3L20,24L24,24C26.667,24 28,22.667 28,20L28,8C28,5.333 26.667,4 24,4L8,4M24,2C28,2 30,4 30,8L30,20C30,24 28,26 24,26L20.85,26L18.15,28.75C17.517,29.317 16.8,29.6 16,29.6C15.2,29.6 14.5,29.317 13.9,28.75L11.15,26L8,26C4,26 2,24 2,20L2,8C2,4 4,2 8,2L24,2M24,14C24,14.567 23.8,15.033 23.4,15.4C23.033,15.8 22.567,16 22,16C21.433,16 20.95,15.8 20.55,15.4C20.183,15.033 20,14.567 20,14C20,13.433 20.183,12.95 20.55,12.55C20.95,12.183 21.433,12 22,12C22.567,12 23.033,12.183 23.4,12.55C23.8,12.95 24,13.433 24,14M12,14C12,14.567 11.8,15.033 11.4,15.4C11.033,15.8 10.567,16 10,16C9.433,16 8.95,15.8 8.55,15.4C8.183,15.033 8,14.567 8,14C8,13.433 8.183,12.95 8.55,12.55C8.95,12.183 9.433,12 10,12C10.567,12 11.033,12.183 11.4,12.55C11.8,12.95 12,13.433 12,14M18,14C18,14.567 17.8,15.033 17.4,15.4C17.033,15.8 16.567,16 16,16C15.433,16 14.95,15.8 14.55,15.4C14.183,15.033 14,14.567 14,14C14,13.433 14.183,12.95 14.55,12.55C14.95,12.183 15.433,12 16,12C16.567,12 17.033,12.183 17.4,12.55C17.8,12.95 18,13.433 18,14" style="fill-rule:nonzero;"/>
                </g>
                <g transform="matrix(1,0,0,1,457.148,927.129)">
                    <path d="M18,14C18,13.433 17.8,12.95 17.4,12.55C17.033,12.183 16.567,12 16,12C15.433,12 14.95,12.183 14.55,12.55C14.183,12.95 14,13.433 14,14C14,14.567 14.183,15.033 14.55,15.4C14.95,15.8 15.433,16 16,16C16.567,16 17.033,15.8 17.4,15.4C17.8,15.033 18,14.567 18,14M8,4L24,4C26.667,4 28,5.333 28,8L28,20C28,22.667 26.667,24 24,24L20,24L16.7,27.3L16,27.6L15.3,27.3L12,24L8,24C5.333,24 4,22.667 4,20L4,8C4,5.333 5.333,4 8,4M12,14C12,13.433 11.8,12.95 11.4,12.55C11.033,12.183 10.567,12 10,12C9.433,12 8.95,12.183 8.55,12.55C8.183,12.95 8,13.433 8,14C8,14.567 8.183,15.033 8.55,15.4C8.95,15.8 9.433,16 10,16C10.567,16 11.033,15.8 11.4,15.4C11.8,15.033 12,14.567 12,14M24,14C24,13.433 23.8,12.95 23.4,12.55C23.033,12.183 22.567,12 22,12C21.433,12 20.95,12.183 20.55,12.55C20.183,12.95 20,13.433 20,14C20,14.567 20.183,15.033 20.55,15.4C20.95,15.8 21.433,16 22,16C22.567,16 23.033,15.8 23.4,15.4C23.8,15.033 24,14.567 24,14" style="fill:rgb(0,250,244);fill-rule:nonzero;"/>
                </g>
            </g>
            <g transform="matrix(3.42857,0,0,3.47826,-1155.22,-2367.75)">
                <g transform="matrix(1,0,0,1,457.148,927.129)">
                    <path d="M8,4C5.333,4 4,5.333 4,8L4,20C4,22.667 5.333,24 8,24L12,24L15.3,27.3L16,27.6L16.7,27.3L20,24L24,24C26.667,24 28,22.667 28,20L28,8C28,5.333 26.667,4 24,4L8,4M24,2C28,2 30,4 30,8L30,20C30,24 28,26 24,26L20.85,26L18.15,28.75C17.517,29.317 16.8,29.6 16,29.6C15.2,29.6 14.5,29.317 13.9,28.75L11.15,26L8,26C4,26 2,24 2,20L2,8C2,4 4,2 8,2L24,2M24,14C24,14.567 23.8,15.033 23.4,15.4C23.033,15.8 22.567,16 22,16C21.433,16 20.95,15.8 20.55,15.4C20.183,15.033 20,14.567 20,14C20,13.433 20.183,12.95 20.55,12.55C20.95,12.183 21.433,12 22,12C22.567,12 23.033,12.183 23.4,12.55C23.8,12.95 24,13.433 24,14M12,14C12,14.567 11.8,15.033 11.4,15.4C11.033,15.8 10.567,16 10,16C9.433,16 8.95,15.8 8.55,15.4C8.183,15.033 8,14.567 8,14C8,13.433 8.183,12.95 8.55,12.55C8.95,12.183 9.433,12 10,12C10.567,12 11.033,12.183 11.4,12.55C11.8,12.95 12,13.433 12,14M18,14C18,14.567 17.8,15.033 17.4,15.4C17.033,15.8 16.567,16 16,16C15.433,16 14.95,15.8 14.55,15.4C14.183,15.033 14,14.567 14,14C14,13.433 14.183,12.95 14.55,12.55C14.95,12.183 15.433,12 16,12C16.567,12 17.033,12.183 17.4,12.55C17.8,12.95 18,13.433 18,14" style="fill-rule:nonzero;"/>
                </g>
                <g transform="matrix(1,0,0,1,457.148,927.129)">
                    <path d="M18,14C18,13.433 17.8,12.95 17.4,12.55C17.033,12.183 16.567,12 16,12C15.433,12 14.95,12.183 14.55,12.55C14.183,12.95 14,13.433 14,14C14,14.567 14.183,15.033 14.55,15.4C14.95,15.8 15.433,16 16,16C16.567,16 17.033,15.8 17.4,15.4C17.8,15.033 18,14.567 18,14M8,4L24,4C26.667,4 28,5.333 28,8L28,20C28,22.667 26.667,24 24,24L20,24L16.7,27.3L16,27.6L15.3,27.3L12,24L8,24C5.333,24 4,22.667 4,20L4,8C4,5.333 5.333,4 8,4M12,14C12,13.433 11.8,12.95 11.4,12.55C11.033,12.183 10.567,12 10,12C9.433,12 8.95,12.183 8.55,12.55C8.183,12.95 8,13.433 8,14C8,14.567 8.183,15.033 8.55,15.4C8.95,15.8 9.433,16 10,16C10.567,16 11.033,15.8 11.4,15.4C11.8,15.033 12,14.567 12,14M24,14C24,13.433 23.8,12.95 23.4,12.55C23.033,12.183 22.567,12 22,12C21.433,12 20.95,12.183 20.55,12.55C20.183,12.95 20,13.433 20,14C20,14.567 20.183,15.033 20.55,15.4C20.95,15.8 21.433,16 22,16C22.567,16 23.033,15.8 23.4,15.4C23.8,15.033 24,14.567 24,14" style="fill:white;fill-rule:nonzero;"/>
                </g>
            </g>
        </g>
    </g>
</svg>
