<?xml version="1.0" encoding="UTF-8" standalone="no"?>
<!DOCTYPE svg PUBLIC "-//W3C//DTD SVG 1.1//EN" "http://www.w3.org/Graphics/SVG/1.1/DTD/svg11.dtd">
<svg width="100%" height="100%" viewBox="0 0 96 193" version="1.1" xmlns="http://www.w3.org/2000/svg" xmlns:xlink="http://www.w3.org/1999/xlink" xml:space="preserve" xmlns:serif="http://www.serif.com/" style="fill-rule:evenodd;clip-rule:evenodd;stroke-linecap:round;stroke-linejoin:round;stroke-miterlimit:1.5;">
    <g transform="matrix(1,0,0,1,-768.007,-639.993)">
        <g id="btn_settings">
            <g id="btn_settings1" serif:id="btn_settings" transform="matrix(0.923077,0,0,0.923077,121.847,-153.847)">
                <g transform="matrix(3.75,0,0,4.09091,-5382.99,106.084)">
                    <path d="M1649.87,186L1649.87,208C1649.87,208.945 1649.03,209.711 1648,209.711L1624,209.711C1622.97,209.711 1622.13,208.945 1622.13,208L1622.13,186C1622.13,185.055 1622.97,184.289 1624,184.289L1648,184.289C1649.03,184.289 1649.87,185.055 1649.87,186ZM1648,186L1624,186L1624,208L1648,208L1648,186Z" style="fill:rgb(27,27,27);"/>
                </g>
                <g transform="matrix(3.75,0,0,4.09091,-5382.99,106.084)">
                    <rect x="1624" y="186" width="24" height="22" style="fill:white;"/>
                </g>
                <g transform="matrix(3.97059,0,0,3.97059,-5739.9,123.816)">
                    <rect x="1627" y="191" width="16" height="5" style="fill:white;stroke:rgb(27,27,27);stroke-width:1.33px;"/>
                </g>
                <g transform="matrix(3.97059,0,0,3.97059,-5739.9,163.552)">
                    <rect x="1627" y="191" width="16" height="5" style="fill:white;stroke:rgb(27,27,27);stroke-width:1.33px;"/>
                </g>
            </g>
            <g id="btn_settings2" serif:id="btn_settings" transform="matrix(0.923077,0,0,0.923077,121.847,-57.8396)">
                <g transform="matrix(3.75,0,0,4.09091,-5382.99,106.084)">
                    <path d="M1649.87,186L1649.87,208C1649.87,208.945 1649.03,209.711 1648,209.711L1624,209.711C1622.97,209.711 1622.13,208.945 1622.13,208L1622.13,186C1622.13,185.055 1622.97,184.289 1624,184.289L1648,184.289C1649.03,184.289 1649.87,185.055 1649.87,186ZM1648,186L1624,186L1624,208L1648,208L1648,186Z" style="fill:rgb(27,27,27);"/>
                </g>
                <g transform="matrix(3.75,0,0,4.09091,-5382.99,106.084)">
                    <rect x="1624" y="186" width="24" height="22" style="fill:rgb(0,250,244);"/>
                </g>
                <g transform="matrix(3.97059,0,0,3.97059,-5739.9,123.816)">
                    <rect x="1627" y="191" width="16" height="5" style="fill:rgb(0,250,244);stroke:rgb(27,27,27);stroke-width:1.33px;"/>
                </g>
                <g transform="matrix(3.97059,0,0,3.97059,-5739.9,163.552)">
                    <rect x="1627" y="191" width="16" height="5" style="fill:rgb(0,250,244);stroke:rgb(27,27,27);stroke-width:1.33px;"/>
                </g>
            </g>
        </g>
    </g>
</svg>
