<?xml version="1.0" encoding="UTF-8" standalone="no"?>
<!DOCTYPE svg PUBLIC "-//W3C//DTD SVG 1.1//EN" "http://www.w3.org/Graphics/SVG/1.1/DTD/svg11.dtd">
<svg width="100%" height="100%" viewBox="0 0 96 192" version="1.1" xmlns="http://www.w3.org/2000/svg" xmlns:xlink="http://www.w3.org/1999/xlink" xml:space="preserve" xmlns:serif="http://www.serif.com/" style="fill-rule:evenodd;clip-rule:evenodd;stroke-linejoin:round;stroke-miterlimit:2;">
    <g transform="matrix(1,0,0,1,-224,-640)">
        <g id="btn_look" transform="matrix(1,0,0,1,-256,-96)">
            <g transform="matrix(-3.42857,0,0,3.42857,2797.7,-1923.96)">
                <g transform="matrix(1,0,0,1,645.997,773.822)">
                    <path d="M27.45,24.6C27.817,24.967 28,25.433 28,26C28,26.567 27.817,27.05 27.45,27.45C27.05,27.817 26.567,28 26,28C25.433,28 24.967,27.817 24.6,27.45L19.55,22.4C17.917,23.467 16.067,24 14,24C11.267,24 8.9,23.033 6.9,21.1L6.9,21.05C4.967,19.083 4,16.733 4,14C4,11.267 4.95,8.917 6.85,6.95L6.95,6.85C8.917,4.95 11.267,4 14,4C16.733,4 19.083,4.967 21.05,6.9L21.1,6.9C23.033,8.9 24,11.267 24,14C24,16.067 23.467,17.917 22.4,19.55L27.45,24.6M20,14C20,12.367 19.417,10.95 18.25,9.75L18.25,9.7C17.05,8.567 15.633,8 14,8C12.367,8 10.95,8.567 9.75,9.7L9.7,9.75C8.567,10.95 8,12.367 8,14C8,15.633 8.567,17.05 9.7,18.25L9.75,18.25C10.95,19.417 12.367,20 14,20C15.633,20 17.05,19.417 18.25,18.25C19.417,17.05 20,15.633 20,14" style="fill:white;fill-rule:nonzero;"/>
                </g>
                <g transform="matrix(1,0,0,1,645.997,773.822)">
                    <path d="M20,14C20,15.633 19.417,17.05 18.25,18.25C17.05,19.417 15.633,20 14,20C12.367,20 10.95,19.417 9.75,18.25L9.7,18.25C8.567,17.05 8,15.633 8,14C8,12.367 8.567,10.95 9.7,9.75L9.75,9.7C10.95,8.567 12.367,8 14,8C15.633,8 17.05,8.567 18.25,9.7L18.25,9.75C19.417,10.95 20,12.367 20,14M27.45,24.6L22.4,19.55C23.467,17.917 24,16.067 24,14C24,11.267 23.033,8.9 21.1,6.9L21.05,6.9C19.083,4.967 16.733,4 14,4C11.267,4 8.917,4.95 6.95,6.85L6.85,6.95C4.95,8.917 4,11.267 4,14C4,16.733 4.967,19.083 6.9,21.05L6.9,21.1C8.9,23.033 11.267,24 14,24C16.067,24 17.917,23.467 19.55,22.4L24.6,27.45C24.967,27.817 25.433,28 26,28C26.567,28 27.05,27.817 27.45,27.45C27.817,27.05 28,26.567 28,26C28,25.433 27.817,24.967 27.45,24.6M22.55,5.5C24.85,7.9 26,10.733 26,14C26,15.867 25.633,17.6 24.9,19.2L28.9,23.2C29.633,23.933 30,24.867 30,26C30,27.1 29.65,28.033 28.95,28.8L28.8,28.95C28.033,29.65 27.1,30 26,30C24.867,30 23.933,29.633 23.2,28.9L19.2,24.9C17.6,25.633 15.867,26 14,26C10.733,26 7.9,24.85 5.5,22.55L5.2,22.15C3.067,19.85 2,17.133 2,14C2,10.733 3.133,7.917 5.4,5.55L5.45,5.55L5.55,5.45L5.55,5.4C7.917,3.133 10.733,2 14,2C17.133,2 19.85,3.067 22.15,5.2L22.55,5.5" style="fill-rule:nonzero;"/>
                </g>
            </g>
            <g transform="matrix(-3.42857,0,0,3.42857,2797.7,-1827.96)">
                <g transform="matrix(1,0,0,1,645.997,773.822)">
                    <path d="M27.45,24.6C27.817,24.967 28,25.433 28,26C28,26.567 27.817,27.05 27.45,27.45C27.05,27.817 26.567,28 26,28C25.433,28 24.967,27.817 24.6,27.45L19.55,22.4C17.917,23.467 16.067,24 14,24C11.267,24 8.9,23.033 6.9,21.1L6.9,21.05C4.967,19.083 4,16.733 4,14C4,11.267 4.95,8.917 6.85,6.95L6.95,6.85C8.917,4.95 11.267,4 14,4C16.733,4 19.083,4.967 21.05,6.9L21.1,6.9C23.033,8.9 24,11.267 24,14C24,16.067 23.467,17.917 22.4,19.55L27.45,24.6M20,14C20,12.367 19.417,10.95 18.25,9.75L18.25,9.7C17.05,8.567 15.633,8 14,8C12.367,8 10.95,8.567 9.75,9.7L9.7,9.75C8.567,10.95 8,12.367 8,14C8,15.633 8.567,17.05 9.7,18.25L9.75,18.25C10.95,19.417 12.367,20 14,20C15.633,20 17.05,19.417 18.25,18.25C19.417,17.05 20,15.633 20,14" style="fill:rgb(0,250,244);fill-rule:nonzero;"/>
                </g>
                <g transform="matrix(1,0,0,1,645.997,773.822)">
                    <path d="M20,14C20,15.633 19.417,17.05 18.25,18.25C17.05,19.417 15.633,20 14,20C12.367,20 10.95,19.417 9.75,18.25L9.7,18.25C8.567,17.05 8,15.633 8,14C8,12.367 8.567,10.95 9.7,9.75L9.75,9.7C10.95,8.567 12.367,8 14,8C15.633,8 17.05,8.567 18.25,9.7L18.25,9.75C19.417,10.95 20,12.367 20,14M27.45,24.6L22.4,19.55C23.467,17.917 24,16.067 24,14C24,11.267 23.033,8.9 21.1,6.9L21.05,6.9C19.083,4.967 16.733,4 14,4C11.267,4 8.917,4.95 6.95,6.85L6.85,6.95C4.95,8.917 4,11.267 4,14C4,16.733 4.967,19.083 6.9,21.05L6.9,21.1C8.9,23.033 11.267,24 14,24C16.067,24 17.917,23.467 19.55,22.4L24.6,27.45C24.967,27.817 25.433,28 26,28C26.567,28 27.05,27.817 27.45,27.45C27.817,27.05 28,26.567 28,26C28,25.433 27.817,24.967 27.45,24.6M22.55,5.5C24.85,7.9 26,10.733 26,14C26,15.867 25.633,17.6 24.9,19.2L28.9,23.2C29.633,23.933 30,24.867 30,26C30,27.1 29.65,28.033 28.95,28.8L28.8,28.95C28.033,29.65 27.1,30 26,30C24.867,30 23.933,29.633 23.2,28.9L19.2,24.9C17.6,25.633 15.867,26 14,26C10.733,26 7.9,24.85 5.5,22.55L5.2,22.15C3.067,19.85 2,17.133 2,14C2,10.733 3.133,7.917 5.4,5.55L5.45,5.55L5.55,5.45L5.55,5.4C7.917,3.133 10.733,2 14,2C17.133,2 19.85,3.067 22.15,5.2L22.55,5.5" style="fill-rule:nonzero;"/>
                </g>
            </g>
        </g>
    </g>
</svg>
