<?xml version="1.0" encoding="UTF-8" standalone="no"?>
<!DOCTYPE svg PUBLIC "-//W3C//DTD SVG 1.1//EN" "http://www.w3.org/Graphics/SVG/1.1/DTD/svg11.dtd">
<svg width="100%" height="100%" viewBox="0 0 32 32" version="1.1" xmlns="http://www.w3.org/2000/svg" xmlns:xlink="http://www.w3.org/1999/xlink" xml:space="preserve" xmlns:serif="http://www.serif.com/" style="fill-rule:evenodd;clip-rule:evenodd;stroke-linejoin:round;stroke-miterlimit:2;">
    <g transform="matrix(1,0,0,1,-224,-928)">
        <g id="ico_continue_high_res" transform="matrix(0.64,0,0,0.64,204.08,628.48)">
            <g transform="matrix(4.25532,0,0,3.57143,-2901.85,-1164.14)">
                <rect x="689.25" y="457" width="11.75" height="14" style="fill:rgb(255,0,0);fill-opacity:0;"/>
            </g>
            <g transform="matrix(1.16667,0,0,1.13636,18.7917,456.636)">
                <path d="M21.5,10L42.5,10C47.5,10.167 50,12.833 50,18L50,38C50,42.4 48.433,46.167 45.3,49.3C42.167,52.433 38.4,54 34,54L30,54C25.6,54 21.833,52.433 18.7,49.3C15.567,46.167 14,42.4 14,38L14,18C14,12.833 16.5,10.167 21.5,10" style="fill-rule:nonzero;"/>
            </g>
            <g transform="matrix(1,0,0,1,24.125,461)">
                <path d="M21.5,10L42.5,10C47.5,10.167 50,12.833 50,18L50,38C50,42.4 48.433,46.167 45.3,49.3C42.167,52.433 38.4,54 34,54L30,54C25.6,54 21.833,52.433 18.7,49.3C15.567,46.167 14,42.4 14,38L14,18C14,12.833 16.5,10.167 21.5,10M47,38L47,31L37.95,31C37.75,32.233 37.183,33.317 36.25,34.25C35.083,35.417 33.667,36 32,36C30.333,36 28.917,35.417 27.75,34.25C26.817,33.317 26.267,32.233 26.1,31L17,31L17,38C17,41.567 18.283,44.633 20.85,47.2C23.383,49.733 26.433,51 30,51L34,51C37.567,51 40.633,49.733 43.2,47.2C45.733,44.633 47,41.567 47,38M29.9,19.9C29.3,20.467 29,21.167 29,22L29,30C29,30.833 29.3,31.55 29.9,32.15C30.467,32.717 31.167,33 32,33C32.833,33 33.55,32.717 34.15,32.15C34.717,31.55 35,30.833 35,30L35,22C35,21.167 34.717,20.467 34.15,19.9C33.55,19.3 32.833,19 32,19C31.167,19 30.467,19.3 29.9,19.9M42,13L34,13L34,16.35C34.833,16.617 35.583,17.083 36.25,17.75C37.417,18.917 38,20.333 38,22L38,28L47,28L47,18C47,14.667 45.333,13 42,13" style="fill:white;fill-rule:nonzero;"/>
            </g>
        </g>
    </g>
</svg>
