<svg height="18" viewBox="0 0 4.7625 4.7624998" width="18" xmlns="http://www.w3.org/2000/svg"><g fill="#e0e0e0"><path d="m2.6458333 3.3072916v.9260416h1.7197916v-.9260416zm.1322916.1322917h.2645834v.2645833h-.2645834zm.396875 0h.2645834v.2645833h-.2645834zm.396875 0h.2645834v.2645833h-.2645834zm.396875 0h.2645833v.2645833h-.2645833zm0 .396875h.2645833v.2645833h-.2645833zm-1.190625.0015502h.2645834v.2645834h-.2645834zm.396875 0h.2645834v.2645834h-.2645834zm.396875 0h.2645834v.2645834h-.2645834z" stroke-width="3.39255"/><path d="m.39687499 3.3072916v.9260416h1.71979161v-.9260416zm.13229167.1322917h.39687499v.1322916h-.39687499zm.52916664 0h.396875v.1322916h-.396875zm.5291667 0h.396875v.1322916h-.396875zm-1.05833334.2645833h.39687499v.1322917h-.39687499zm.52916664 0h.396875v.1322917h-.396875zm.5291667 0h.396875v.1322917h-.396875zm-1.05833334.2645833h.39687499v.1322917h-.39687499zm.52916664 0h.396875v.1322917h-.396875zm.5291667 0h.396875v.1322917h-.396875z" stroke-width="3.39256"/><g transform="translate(1.322917)"><path d="m.79375 1.322916h.661458v.264583h-.661458z"/><path d="m1.984375 1.322916h.661458v.264583h-.661458z"/><path d="m1.5875.529166h.264583v.661458h-.264583z"/><path d="m1.5875 1.719791h.264583v.661458h-.264583z"/></g><path d="m2.2489594 3.3072914h.2645808v.3968751h-.2645808z" stroke-width=".866022"/><path d="m2.2489582 3.8364582h.2645832v.3968751h-.2645832z" stroke-width=".866026"/></g></svg>