<svg height="18" viewBox="0 0 4.7624999 4.7624998" width="18" xmlns="http://www.w3.org/2000/svg"><g fill="#e0e0e0" transform="translate(.264583 .264583)"><path d="m2.1431249 1.3229166c-.3078162 0-.555625.2528661-.555625.5669643v.3779762h.8334375v-.9449405zm.4630209 0v.9449405h.8334375v-.3779762c0-.3140982-.2478088-.5669643-.5556251-.5669643zm-1.0186459 1.1339286v.9449404c0 .3140982.2478088.5669643.555625.5669643h.7408333c.3078162 0 .5556251-.2528661.5556251-.5669643v-.9449404z"/><path d="m.529167 1.5875h.529167v.264583h-.529167z"/><path d="m1.852083.264583h.264583v.53937h-.264583z"/><path d="m.212546 1.013864h.264583v.53937h-.264583z" transform="matrix(.7907937 -.61208278 .61208278 .7907937 0 0)"/></g></svg>