<svg height="16" viewBox="0 0 4.2333333 4.2333332" width="16" xmlns="http://www.w3.org/2000/svg"><path d="m.9803019.26406656c-.02719659.00125976-.05394699.0084733-.07906494.02118734-.06780822.0339041-.1100708.10251642-.1100708.17776692v3.30729158c0 .0851736.05435324.1616404.13539225.1881022.08103909.0264616.17042229-.001128.22169189-.0697631l.6418213-1.0071737c.1447668-.2363914.1446027-.236051.4728393-.2361613h.9766846c.0860002 0 .1621576-.0548701.188619-.135909.026462-.0810392-.0006125-.1704219-.0692465-.2216919l-2.2505085-1.98385818c-.0372119-.02842563-.08283-.04189045-.1281576-.03979086zm.2775024.79478354 1.26969 1.1187947h-.2640666c-.1640357.0000551-.3001743-.0278378-.5136637.0780314-.2106591.1044656-.283138.2568798-.3550171.3751709l-.1369426.214974z" fill="#e0e0e0"/></svg>