<?xml version="1.0" encoding="UTF-8" standalone="no"?>
<svg
   height="16"
   width="16"
   version="1.1"
   id="svg2"
   sodipodi:docname="btn_beacon.svg"
   inkscape:version="1.4.4 (dcaf3e7d9e, 2026-05-05)"
   xmlns:inkscape="http://www.inkscape.org/namespaces/inkscape"
   xmlns:sodipodi="http://sodipodi.sourceforge.net/DTD/sodipodi-0.dtd"
   xmlns="http://www.w3.org/2000/svg"
   xmlns:svg="http://www.w3.org/2000/svg">
  <defs
     id="defs2" />
  <sodipodi:namedview
     id="namedview2"
     pagecolor="#ffffff"
     bordercolor="#000000"
     borderopacity="0.25"
     inkscape:showpageshadow="2"
     inkscape:pageopacity="0.0"
     inkscape:pagecheckerboard="0"
     inkscape:deskcolor="#d1d1d1"
     showgrid="true"
     inkscape:zoom="45.254834"
     inkscape:cx="7.3030872"
     inkscape:cy="10.021029"
     inkscape:window-width="5120"
     inkscape:window-height="1371"
     inkscape:window-x="0"
     inkscape:window-y="0"
     inkscape:window-maximized="1"
     inkscape:current-layer="svg2">
    <inkscape:grid
       id="grid3"
       units="px"
       originx="0"
       originy="0"
       spacingx="1"
       spacingy="1"
       empcolor="#0099e5"
       empopacity="0.30196078"
       color="#0099e5"
       opacity="0.14901961"
       empspacing="5"
       enabled="true"
       visible="true" />
  </sodipodi:namedview>
  <path
     d="M 8,6 A 2,2 0 0 0 6,8 2,2 0 0 0 8,10 2,2 0 0 0 10,8 2,2 0 0 0 8,6 Z"
     id="path7"
     style="fill:#e0e0e0;fill-opacity:1" />
  <path
     d="M 8,1.25 C 4.2809614,1.25 1.25,4.2809614 1.25,8 c 0,1.0766079 0.2539148,2.095554 0.7050781,3 H 3.6855469 C 3.0951501,10.150681 2.75,9.1171511 2.75,8 2.75,5.0916216 5.0916216,2.75 8,2.75 c 2.908378,0 5.25,2.3416216 5.25,5.25 0,2.908378 -2.341622,5.25 -5.25,5.25 -1.1171512,0 -2.1506807,-0.34515 -3,-0.935547 v 1.730469 C 5.9044465,14.496085 6.9233922,14.75 8,14.75 11.719039,14.75 14.75,11.719039 14.75,8 14.75,4.2809614 11.719039,1.25 8,1.25 Z"
     id="path1"
     style="fill:#e0e0e0;fill-opacity:1" />
  <path
     style="fill:#e0e0e0;stroke:none;stroke-width:0.0138768"
     d="M 0,14 V 12.001734 H 1.991327 3.982654 V 14 15.998265 H 1.991327 0 Z"
     id="path3" />
</svg>
