<svg height="16" viewBox="0 0 4.2333333 4.2333332" width="16" xmlns="http://www.w3.org/2000/svg"><g fill="#e0e0e0"><path d="m.264583 3.704166h.529167v.264583h-.529167z"/><path d="m1.058333 3.704166h.529167v.264583h-.529167z"/><path d="m2.645834 3.705713h.264583v.264584h-.264583z"/><path d="m.264583 3.175h.529167v.261491h-.529167z"/><path d="m1.058333 3.175h.529167v.264583h-.529167z"/><path d="m1.852083 3.704166h.529167v.264583h-.529167z"/><path d="m1.852083 3.175h.529167v.264583h-.529167z"/><path d="m2.645833 3.175h.264584v.264583h-.264584z"/><path d="m3.175 3.705713h.264583v.264584h-.264583z"/><path d="m3.175 3.175h.264584v.264583h-.264584z"/><path d="m3.704168 3.705713h.264583v.264584h-.264583z"/><path d="m3.704167 3.175h.264584v.264583h-.264584z"/><path d="m.529167 1.058333h.661458v.264583h-.661458z"/><path d="m1.719792 1.058333h.661458v.264583h-.661458z"/><path d="m1.322917.264583h.264583v.661458h-.264583z"/><path d="m1.322917 1.455208h.264583v.661458h-.264583z"/></g></svg>