<svg height="16" viewBox="0 0 4.2333333 4.2333332" width="16" xmlns="http://www.w3.org/2000/svg"><g fill="#e0e0e0"><path d="m.79375 2.645833h1.322917v1.322917h-1.322917z" stroke-width=".083629"/><path d="m390.54 55.719c-37.157-37.141-85.844-55.719-134.547-55.719-48.688 0-97.391 18.578-134.547 55.719-59.219 59.219-74.641 149.563-36.094 218.875 44.234 79.515 170.641 237.406 170.641 237.406s126.422-157.891 170.656-237.406c38.546-69.313 23.124-159.656-36.109-218.875zm-134.547 250.125c-63.813 0-115.563-51.75-115.563-115.547 0-63.859 51.75-115.609 115.563-115.609 63.828 0 115.578 51.75 115.578 115.609 0 63.797-51.75 115.547-115.578 115.547z" transform="matrix(.00410539 0 0 .00410539 1.606925 .272757)"/></g></svg>