<svg height="18" viewBox="0 0 4.7624999 4.7624998" width="18" xmlns="http://www.w3.org/2000/svg"><g fill="#e0e0e0"><path d="m1.9061179 1.587565c-.00777.0003854-.015412.00259-.022588.00648-.019372.010379-.031446.03138-.031446.054414v1.0123512c0 .026071.015528.049476.03868.057577.023152.0081.048688-.0003451.063335-.021354l.183363-.3082881c.041358-.072359.041312-.072255.1350855-.072288h.2790294c.02457 0 .046326-.016795.053886-.041602.00756-.024805-.0001745-.052164-.019783-.067859l-.6429486-.6072514c-.010631-.0087-.023664-.012822-.036613-.01218z" stroke-width=".690066"/><g stroke-width=".003157" transform="matrix(.80620117 0 0 .75675801 .809911 1.561264)"><path d="m3.6847799 3.3221783c.041563.060772.025591.1440248-.035509.1855882-.06098.041535-.14411.025736-.1854904-.035424-.020727-.030279-.406658-.7586832-.406658-.7586832l.1541107-.2367445s.4580445.8222264.4735467.8452635z"/><path d="m3.3059517.97556803c0 .13365837-.1083106.24193747-.2419153.24193747-.1335416 0-.2417827-.1082791-.2417827-.24193747 0-.13351012.1082411-.24164391.2417827-.24164391.1336047 0 .2419153.10813067.2419153.24164391z"/><path d="m3.241282 1.2947551c.047738 0 .1010627.019773.1331248.063534 0 0 .2286665.3130388.2795515.3823365.015025.020452.0209.044738.019066.068164 0 .050288.0001153.3039539.0003458.3812031.0000585.055756-.045003.1007364-.1004018.1007364-.055579.00014-.100881-.044887-.1010641-.1004974 0-.023634-.0000022-.2470153-.0002387-.3577535-.029508-.04032-.086571-.1182475-.1445833-.1973686v.481557c0 .089982-.053689.1509925-.1053701.2292858-.2035438.3088093-.6638853 1.0728573-.7002135 1.126394-.041563.06116-.1245688.076962-.1857318.035427-.06104-.041564-.076837-.1248177-.035448-.1855893.1720149-.2513125.3441457-.6074335.5164104-.8585744v-.8846185c-.1295696.1884417-.3472167.5338098-.3472167.5338098s-.053866.086653-.1327395.045992c-.084133-.0433733-.0491819-.1290072-.0491819-.1290072l.427596-.6579351c.036816-.05341.088413-.077096.1444056-.077096z"/></g><g stroke-width=".264583"><path d="m.529167.529167h.529167v.529167h-.529167z"/><path d="m1.322917.529167h.529167v.529167h-.529167z"/><path d="m2.122287.529167h.523546v.529167h-.523546z"/><path d="m2.910417.529167h.529167v.529167h-.529167z"/><path d="m3.704167.529167h.529167v.529167h-.529167z"/></g></g></svg>