<svg height="18" viewBox="0 0 4.7624999 4.7624998" width="18" xmlns="http://www.w3.org/2000/svg"><g fill="#e0e0e0" transform="translate(.264583 .264583)"><path d="m.61021804.26467442c-.0116547.00053985-.0231182.003631-.0338821.00908-.0290582.0145291-.0471693.0439319-.0471693.0761794v1.41729188c0 .0365.0232924.069268.0580204.080608.0347281.01134.0730321-.0004834.0950029-.029896l.27504333-.4316093c.06203773-.1013022.06196733-.1011562.20262843-.1012035h.4185442c.036854 0 .06949-.023513.08083-.058242.01134-.034728-.0002624-.073031-.029675-.095003l-.96442276-.85015367c-.0159466-.0121814-.0354956-.0179515-.0549201-.0170518z"/><path d="m1.5875 1.8520833c-.1465791 0-.2645834.1180042-.2645834.2645833v1.0583333c0 .1465792.1180043.2645834.2645834.2645834h.5291666v.5291666l.79375-.5291666h.5291667c.1465791 0 .2645833-.1180042.2645833-.2645834v-1.0583333c0-.1465791-.1180042-.2645833-.2645833-.2645833zm.9260416.2645833c.07329 0 .1322917.059002.1322917.1322917v.5291666c0 .07329-.059002.1322917-.1322917.1322917-.07329 0-.1322916-.059002-.1322916-.1322917v-.5291666c0-.07329.059002-.1322917.1322916-.1322917zm0 1.0583333c.07329 0 .1322917.059002.1322917.1322917 0 .07329-.059002.1322917-.1322917.1322917-.07329 0-.1322916-.059002-.1322916-.1322917 0-.07329.059002-.1322917.1322916-.1322917z" stroke-width=".264583"/></g></svg>