<svg height="16" viewBox="0 0 4.2333333 4.2333332" width="16" xmlns="http://www.w3.org/2000/svg"><g fill="#e0e0e0"><path d="m.79374996 2.6458333v1.3229166h1.32291664v-1.3229166z" stroke-width=".050322"/><path d="m1.1906249.26458333a.92604148.92604155 0 0 0 -.92604158.92604167.92604148.92604155 0 0 0 .92604158.9260416.92604148.92604155 0 0 0 .8741928-.6221842.3086805.3086805 0 0 0 .051849.00482.3086805.3086805 0 0 0 .053054-.00482.92604148.92604155 0 0 0 .8729874.6221842.92604148.92604155 0 0 0 .9260415-.9260416.92604148.92604155 0 0 0 -.9260415-.92604167.92604148.92604155 0 0 0 -.8729872.62218409.3086805.3086805 0 0 0 -.0530544-.0048231.3086805.3086805 0 0 0 -.0530545.0048231.92604148.92604155 0 0 0 -.8729871-.62218409zm-.1549432.30868051a.46253846.46302073 0 0 1 .462418.46302086.46253846.46302073 0 0 1 -.462418.4630208.46253846.46302073 0 0 1 -.46241787-.4630208.46253846.46302073 0 0 1 .46241787-.46302086zm1.8526861 0a.46302073.46302077 0 0 1 .4630207.46302086.46302073.46302077 0 0 1 -.4630207.4630208.46302073.46302077 0 0 1 -.4630208-.4630208.46302073.46302077 0 0 1 .4630208-.46302086z" stroke-width=".30868"/></g></svg>