<svg clip-rule="evenodd" fill-rule="evenodd" height="724.33997" stroke-linejoin="round" stroke-miterlimit="2" viewBox="0 0 731.1369 724.33996" width="731.1369" xmlns="http://www.w3.org/2000/svg" xmlns:xlink="http://www.w3.org/1999/xlink"><clipPath id="a"><path clip-rule="evenodd" d="m2160 291c23.18 0 42 .153 42 6.5s-18.82 16.5-42 16.5-42-10.153-42-16.5 18.82-6.5 42-6.5z"/></clipPath><path d="m-18.551235-16.160017h1920v1480.729h-1920z" fill="none" stroke-width=".878187"/><path d="m2808.23 244.612c4.62 8.365 7.24 17.978 7.24 28.199 0 1.017-.02 2.028-.07 3.032-.09 1.667.42 3.31 1.42 4.642 3.32 4.378 5.15 9.201 5.15 14.263 0 20.18-29.12 36.563-65 36.563-35.87 0-65-16.383-65-36.563 0-4.295 1.32-8.417 3.75-12.247 1.79-2.875 2.74-6.197 2.73-9.585.02-.035.02-.07.02-.105 0-10.221 2.63-19.834 7.25-28.199l-9.27-9.263c-1.56-1.563-1.56-4.095 0-5.657l9.77-9.765c1.56-1.562 4.09-1.562 5.66 0l7.81 7.816c3.11-2.571 6.48-4.828 10.07-6.722l-2.65-9.891c-.57-2.134.7-4.327 2.83-4.899l13.34-3.574c2.13-.572 4.33.694 4.9 2.828l2.45 9.166c2.09-.225 4.2-.34 6.34-.34 2.15 0 4.26.115 6.35.34l2.45-9.166c.57-2.134 2.77-3.4 4.9-2.828l13.34 3.574c2.13.572 3.4 2.765 2.83 4.899l-2.65 9.891c3.59 1.894 6.97 4.151 10.07 6.722l7.82-7.816c1.56-1.562 4.09-1.562 5.65 0l9.77 9.765c1.56 1.562 1.56 4.094 0 5.657z" fill="#e656e6" transform="matrix(5.0372535 0 0 5.0372558 -13521.988 -982.35063)"/><path d="m2119.41 280.038c-4.47-3.063-7.41-8.21-7.41-14.038 0-9.383 7.62-17 17-17s17 7.617 17 17c0 6.075-3.19 11.41-7.99 14.416-5.35-2.443-12.27-2.15-18.6-.378z" fill="#fff" transform="matrix(5.3335615 0 0 5.3335613 -11127.915 -1056.1352)"/><path d="m2119.99 280.416c-4.8-3.006-7.99-8.341-7.99-14.416 0-9.383 7.62-17 17-17s17 7.617 17 17c0 5.828-2.94 10.975-7.41 14.038-6.33-1.772-13.25-2.065-18.6.378z" fill="#fff" transform="matrix(5.3335615 0 0 5.3335613 -10851.159 -1056.1352)"/><path d="m2127.48 266.512c1.25-3.781 4.82-6.512 9.02-6.512 5.24 0 9.5 4.257 9.5 9.5s-4.26 9.5-9.5 9.5c-4.2 0-7.77-2.731-9.02-6.512l5.88-2.988z" fill="#4e4edc" transform="matrix(5.0372535 0 0 5.0372558 -10498.721 -987.39296)"/><path d="m2127.4 266.781c1.17-3.92 4.8-6.781 9.1-6.781 5.24 0 9.5 4.257 9.5 9.5s-4.26 9.5-9.5 9.5c-4.3 0-7.93-2.861-9.1-6.781l5.34-2.719z" fill="#4e4edc" transform="matrix(5.0372535 0 0 5.0372558 -10221.786 -987.39296)"/><g transform="matrix(5.0372535 0 0 5.913297 -10514.842 -1237.281)"><path d="m2160 291c23.18 0 42 .153 42 6.5s-18.82 16.5-42 16.5-42-10.153-42-16.5 18.82-6.5 42-6.5z" fill="#791279"/><g clip-path="url(#a)" fill="#fff"><path d="m1618 309.426v13.419c0 2.443-1.98 4.426-4.43 4.426h-13.27c-2.45 0-4.43-1.983-4.43-4.426v-13.419c0-2.443 1.98-4.426 4.43-4.426h13.27c2.45 0 4.43 1.983 4.43 4.426z" transform="matrix(1 0 0 .851852 536.899 20.454)"/><path d="m1618 309.426v13.419c0 2.443-1.98 4.426-4.43 4.426h-13.27c-2.45 0-4.43-1.983-4.43-4.426v-13.419c0-2.443 1.98-4.426 4.43-4.426h13.27c2.45 0 4.43 1.983 4.43 4.426z" transform="matrix(1 0 0 .851852 569.233 20.454)"/></g></g></svg>