<svg height="16" width="16" xmlns="http://www.w3.org/2000/svg"><g stroke-linecap="round" stroke-linejoin="round" stroke-width="1.5"><path d="m0 0h16v16h-16z"/><g fill="#e0e0e0"><path d="m7 6h4c3 2 7 9 0 9h-4c-7 0-3-7 0-9z"/><path d="m8 5h2s3-3 1-3c0 0-2 0-4 0s1 3 1 3z"/></g></g><path d="m9 6c1 1 1 3 1 3 0 1 1 1 1 0 0 0 0-2-1-3z"/><g stroke-linejoin="round"><path d="m2 13v-3.9999998l4 1.9999998z" fill="none" stroke="#000" stroke-width="5.5"/><path d="m2 13v-3.9999998l4 1.9999998z" fill="#e0e0e0" stroke="#e0e0e0" stroke-width="2"/></g></svg>