<svg clip-rule="evenodd" fill-rule="evenodd" stroke-linejoin="round" stroke-miterlimit="2" viewBox="0 0 1921 1481" xmlns="http://www.w3.org/2000/svg" xmlns:xlink="http://www.w3.org/1999/xlink"><clipPath id="a"><path clip-rule="evenodd" d="m2160 291c23.18 0 42 .153 42 6.5s-18.82 16.5-42 16.5-42-10.153-42-16.5 18.82-6.5 42-6.5z"/></clipPath><g transform="matrix(1 0 0 .771213 .63 0)"><path d="m0 0h1920v1920h-1920z" fill="none"/><path d="m4697.99 1272.76c.49-.49 1.14-.76 1.83-.76.68 0 1.34.27 1.82.76l8.34 8.35c.78.78 1.81 1.27 2.9 1.38 1.1.12 2.2-.15 3.13-.75l9.89-6.43c.58-.38 1.28-.51 1.95-.36.67.14 1.25.54 1.63 1.12l6.42 9.9c.6.93 1.5 1.62 2.55 1.96s2.18.31 3.21-.09l11.02-4.24c.64-.24 1.35-.22 1.97.06.63.27 1.12.79 1.36 1.43l4.23 11.02c.39 1.03 1.13 1.9 2.08 2.45.96.55 2.07.76 3.16.58l11.66-1.85c.68-.11 1.37.06 1.92.46s.93 1.01 1.03 1.68l1.84 11.66c.17 1.09.72 2.09 1.53 2.83.82.74 1.87 1.17 2.97 1.23l11.79.61c.69.03 1.33.34 1.79.85.45.51.69 1.18.65 1.86l-.62 11.79c-.06 1.1.26 2.19.91 3.08s1.58 1.53 2.65 1.82l11.41 3.05c.66.17 1.22.61 1.56 1.2s.44 1.3.26 1.96l-3.06 11.4c-.29 1.06-.2 2.19.25 3.2s1.23 1.83 2.21 2.33l10.52 5.35c.61.31 1.07.86 1.29 1.51.21.65.15 1.36-.16 1.97l-5.36 10.51c-.51.98-.66 2.11-.43 3.19.23 1.07.83 2.04 1.68 2.74l9.18 7.42c.53.43.87 1.05.95 1.74.07.68-.13 1.36-.56 1.89l-7.44 9.17c-.7.85-1.07 1.92-1.07 3.03 0 1.1.37 2.17 1.07 3.03l7.44 9.17c.43.53.63 1.21.56 1.89-.08.68-.42 1.3-.95 1.74l-9.18 7.42c-.85.69-1.45 1.66-1.68 2.74s-.08 2.2.43 3.18l5.36 10.52c.31.61.37 1.32.16 1.97-.22.65-.68 1.19-1.29 1.5l-10.52 5.35c-.98.5-1.76 1.32-2.21 2.33s-.54 2.14-.25 3.21l3.06 11.4c.18.66.08 1.36-.26 1.96-.34.59-.9 1.02-1.56 1.2l-11.41 3.05c-1.07.28-2 .92-2.65 1.82-.65.89-.97 1.98-.91 3.08l.62 11.78c.04.69-.2 1.36-.65 1.87-.46.51-1.1.81-1.79.85l-11.79.61c-1.1.06-2.15.49-2.97 1.23-.81.73-1.36 1.73-1.53 2.82l-1.84 11.66c-.1.68-.48 1.29-1.03 1.69s-1.24.56-1.92.46l-11.66-1.86c-1.09-.17-2.2.04-3.16.59-.95.55-1.69 1.41-2.08 2.44l-4.23 11.03c-.24.63-.73 1.15-1.36 1.43-.62.28-1.33.3-1.97.05l-11.02-4.24c-1.03-.39-2.16-.42-3.21-.08s-1.95 1.03-2.55 1.95l-6.42 9.91c-.38.57-.96.98-1.63 1.12s-1.37.01-1.95-.36l-9.89-6.44c-.93-.6-2.03-.86-3.13-.75-1.09.12-2.12.61-2.9 1.39l-8.34 8.35c-.48.48-1.14.75-1.82.75-.69 0-1.34-.27-1.83-.75l-8.34-8.35c-.78-.78-1.8-1.27-2.9-1.39-1.1-.11-2.2.15-3.12.75l-9.9 6.44c-.57.37-1.27.5-1.94.36s-1.26-.55-1.63-1.12l-6.42-9.91c-.6-.92-1.5-1.61-2.55-1.95s-2.18-.31-3.21.08l-11.02 4.24c-.64.25-1.35.23-1.98-.05-.62-.28-1.11-.8-1.36-1.43l-4.22-11.03c-.39-1.03-1.13-1.89-2.09-2.44-.95-.55-2.07-.76-3.16-.59l-11.66 1.86c-.67.1-1.36-.06-1.92-.46-.55-.4-.92-1.01-1.03-1.69l-1.84-11.66c-.17-1.09-.71-2.09-1.53-2.82-.82-.74-1.87-1.17-2.97-1.23l-11.79-.61c-.68-.04-1.32-.34-1.78-.85s-.7-1.18-.66-1.87l.63-11.78c.05-1.1-.27-2.19-.92-3.08-.65-.9-1.58-1.54-2.65-1.82l-11.4-3.05c-.66-.18-1.23-.61-1.57-1.2-.34-.6-.43-1.3-.25-1.96l3.06-11.4c.28-1.07.2-2.2-.25-3.21s-1.23-1.83-2.22-2.33l-10.52-5.35c-.61-.31-1.07-.85-1.28-1.5s-.16-1.36.15-1.97l5.37-10.52c.5-.98.65-2.1.42-3.18s-.82-2.05-1.68-2.74l-9.18-7.42c-.53-.44-.87-1.06-.94-1.74s.13-1.36.56-1.89l7.43-9.17c.7-.86 1.08-1.93 1.08-3.03 0-1.11-.38-2.18-1.08-3.03l-7.43-9.17c-.43-.53-.63-1.21-.56-1.89.07-.69.41-1.31.94-1.74l9.18-7.42c.86-.7 1.45-1.67 1.68-2.74.23-1.08.08-2.21-.42-3.19l-5.37-10.51c-.31-.61-.36-1.32-.15-1.97s.67-1.2 1.28-1.51l10.52-5.35c.99-.5 1.77-1.32 2.22-2.33s.53-2.14.25-3.2l-3.06-11.4c-.18-.66-.09-1.37.25-1.96s.91-1.03 1.57-1.2l11.4-3.05c1.07-.29 2-.93 2.65-1.82s.97-1.98.92-3.08l-.63-11.79c-.04-.68.2-1.35.66-1.86s1.1-.82 1.78-.85l11.79-.61c1.1-.06 2.15-.49 2.97-1.23s1.36-1.74 1.53-2.83l1.84-11.66c.11-.67.48-1.28 1.03-1.68.56-.4 1.25-.57 1.92-.46l11.66 1.85c1.09.18 2.21-.03 3.16-.58.96-.55 1.7-1.42 2.09-2.45l4.22-11.02c.25-.64.74-1.16 1.36-1.43.63-.28 1.34-.3 1.98-.06l11.02 4.24c1.03.4 2.16.43 3.21.09s1.95-1.03 2.55-1.96l6.42-9.9c.37-.58.96-.98 1.63-1.12.67-.15 1.37-.02 1.94.36l9.9 6.43c.92.6 2.02.87 3.12.75 1.1-.11 2.12-.6 2.9-1.38z" fill="#f3f310" transform="matrix(4.0382 0 0 5.23617 -18018.8 -6660.41)"/><path d="m2808.23 244.612c4.62 8.365 7.24 17.978 7.24 28.199 0 1.017-.02 2.028-.07 3.032-.09 1.667.42 3.31 1.42 4.642 3.32 4.378 5.15 9.201 5.15 14.263 0 20.18-29.12 36.563-65 36.563-35.87 0-65-16.383-65-36.563 0-4.295 1.32-8.417 3.75-12.247 1.79-2.875 2.74-6.197 2.73-9.585.02-.035.02-.07.02-.105 0-10.221 2.63-19.834 7.25-28.199l-9.27-9.263c-1.56-1.563-1.56-4.095 0-5.657l9.77-9.765c1.56-1.562 4.09-1.562 5.66 0l7.81 7.816c3.11-2.571 6.48-4.828 10.07-6.722l-2.65-9.891c-.57-2.134.7-4.327 2.83-4.899l13.34-3.574c2.13-.572 4.33.694 4.9 2.828l2.45 9.166c2.09-.225 4.2-.34 6.34-.34 2.15 0 4.26.115 6.35.34l2.45-9.166c.57-2.134 2.77-3.4 4.9-2.828l13.34 3.574c2.13.572 3.4 2.765 2.83 4.899l-2.65 9.891c3.59 1.894 6.97 4.151 10.07 6.722l7.82-7.816c1.56-1.562 4.09-1.562 5.65 0l9.77 9.765c1.56 1.562 1.56 4.094 0 5.657z" fill="#e656e6" transform="matrix(5.62413 0 0 7.29258 -14545.6 -1236.86)"/><path d="m2119.41 280.038c-4.47-3.063-7.41-8.21-7.41-14.038 0-9.383 7.62-17 17-17s17 7.617 17 17c0 6.075-3.19 11.41-7.99 14.416-5.35-2.443-12.27-2.15-18.6-.378z" fill="#fff" transform="matrix(5.95496 0 0 7.72155 -11872.6 -1343.68)"/><path d="m2119.99 280.416c-4.8-3.006-7.99-8.341-7.99-14.416 0-9.383 7.62-17 17-17s17 7.617 17 17c0 5.828-2.94 10.975-7.41 14.038-6.33-1.772-13.25-2.065-18.6.378z" fill="#fff" transform="matrix(5.95496 0 0 7.72155 -11563.6 -1343.68)"/><path d="m2127.48 266.512c1.25-3.781 4.82-6.512 9.02-6.512 5.24 0 9.5 4.257 9.5 9.5s-4.26 9.5-9.5 9.5c-4.2 0-7.77-2.731-9.02-6.512l5.88-2.988z" fill="#4e4edc" transform="matrix(5.62413 0 0 7.29258 -11188.1 -1244.16)"/><path d="m2127.4 266.781c1.17-3.92 4.8-6.781 9.1-6.781 5.24 0 9.5 4.257 9.5 9.5s-4.26 9.5-9.5 9.5c-4.3 0-7.93-2.861-9.1-6.781l5.34-2.719z" fill="#4e4edc" transform="matrix(5.62413 0 0 7.29258 -10920.9 -1244.16)"/><g transform="matrix(5.62413 0 0 8.56085 -11188.1 -1605.93)"><path d="m2160 291c23.18 0 42 .153 42 6.5s-18.82 16.5-42 16.5-42-10.153-42-16.5 18.82-6.5 42-6.5z" fill="#791279"/><g clip-path="url(#a)" fill="#fff"><path d="m1618 309.426v13.419c0 2.443-1.98 4.426-4.43 4.426h-13.27c-2.45 0-4.43-1.983-4.43-4.426v-13.419c0-2.443 1.98-4.426 4.43-4.426h13.27c2.45 0 4.43 1.983 4.43 4.426z" transform="matrix(1 0 0 .851852 536.899 20.454)"/><path d="m1618 309.426v13.419c0 2.443-1.98 4.426-4.43 4.426h-13.27c-2.45 0-4.43-1.983-4.43-4.426v-13.419c0-2.443 1.98-4.426 4.43-4.426h13.27c2.45 0 4.43 1.983 4.43 4.426z" transform="matrix(1 0 0 .851852 569.233 20.454)"/></g></g><path d="m5800.6 362.47c-.01 1.807-.25 3.641-.75 5.468-3.09 11.267-14.95 17.963-26.48 14.944-11.52-3.019-18.37-14.617-15.28-25.885.79-2.884 2.15-5.47 3.94-7.669 1.58-1.972 4.12-2.967 6.66-2.607s4.69 2.019 5.63 4.349c.04.037.06.083.08.129.94 2.323.55 4.959-1.03 6.925-.61.713-1.07 1.571-1.33 2.529-1.02 3.737 1.25 7.584 5.07 8.585 3.83 1.002 7.76-1.219 8.79-4.956.42-1.557.28-3.133-.31-4.514-.06-.122-.11-.244-.15-.367-.22-.441-.49-.858-.79-1.242-1.57-1.963-1.83-5.051-.97-7.111.95-2.308 3.08-3.952 5.59-4.321 2.52-.37 5.05.589 6.65 2.522 1.07 1.341 1.99 2.808 2.72 4.374.07.128.13.258.19.391.66 1.511 1.14 3.1 1.44 4.736.13.758.23 1.527.28 2.305.03.459.05.921.05 1.386zm-113.63 15.431-4.09-44.229c-.37-4.033 2.67-7.603 6.8-7.968 4.13-.364 7.78 2.614 8.15 6.647l1.4 15.192c2.11-.784 4.39-1.214 6.78-1.214 10.53 0 19.07 8.354 19.07 18.644v9.208c0 4.049-3.36 7.337-7.5 7.337s-7.51-3.288-7.51-7.337v-9.208c0-2.191-1.82-3.97-4.06-3.97s-4.06 1.779-4.06 3.97v12.267c0 3.791-2.97 6.968-6.83 7.307-.22.02-.45.03-.68.03-3.87.002-7.12-2.901-7.47-6.676zm-166.6-35.829c11.93 0 21.62 9.47 21.62 21.135 0 11.664-9.69 21.135-21.62 21.135s-21.62-9.471-21.62-21.135c0-11.665 9.69-21.135 21.62-21.135zm0 14.125c-3.96 0-7.17 3.141-7.17 7.01s3.21 7.01 7.17 7.01 7.17-3.141 7.17-7.01-3.21-7.01-7.17-7.01zm-69 7.01c0-11.665 9.69-21.135 21.62-21.135s21.62 9.47 21.62 21.135c0 11.664-9.69 21.135-21.62 21.135-1.1 0-2.18-.081-3.23-.236.95 2.886 2.01 5.745 3.19 8.571 1.41 3.283-.13 7.059-3.46 8.503-.01.005-.02.01-.04-.009-3.34 1.448-7.24.023-8.79-3.206-4.18-9.026-6.87-18.793-8.5-29.087-.52-1.805-.79-3.707-.79-5.671zm21.62-7.01c-3.96 0-7.17 3.141-7.17 7.01s3.21 7.01 7.17 7.01c3.95 0 7.17-3.141 7.17-7.01s-3.22-7.01-7.17-7.01zm73.14 7.01c0-11.665 9.69-21.135 21.62-21.135 11.94 0 21.63 9.47 21.63 21.135 0 11.664-9.69 21.135-21.63 21.135-1.09 0-2.17-.081-3.23-.236.96 2.886 2.02 5.745 3.2 8.571 1.4 3.283-.13 7.059-3.46 8.503-.01.005-.02.01-.04-.009-3.34 1.448-7.25.023-8.79-3.206-4.19-9.026-6.88-18.793-8.51-29.087-.51-1.805-.79-3.707-.79-5.671zm21.62-7.01c-3.95 0-7.17 3.141-7.17 7.01s3.22 7.01 7.17 7.01c3.96 0 7.18-3.141 7.18-7.01s-3.22-7.01-7.18-7.01zm164.37-4.298c-.37-4.033 2.68-7.603 6.8-7.968 4.13-.364 7.78 2.614 8.15 6.647l2.41 26.001c.37 4.033-2.68 7.604-6.8 7.968-4.13.365-7.78-2.614-8.15-6.646zm5.32-30.488c4.38 0 7.93 3.47 7.93 7.744s-3.55 7.744-7.93 7.744c-4.37 0-7.92-3.47-7.92-7.744s3.55-7.744 7.92-7.744zm-122.3 20.661c11.93 0 21.62 9.47 21.62 21.135 0 11.664-9.69 21.135-21.62 21.135-11.94 0-21.62-9.471-21.62-21.135 0-11.665 9.68-21.135 21.62-21.135zm0 14.125c-3.96 0-7.17 3.141-7.17 7.01s3.21 7.01 7.17 7.01 7.17-3.141 7.17-7.01-3.21-7.01-7.17-7.01zm59.68 11.557c2.4.945 4.1 3.065 4.48 5.567.37 2.502-.65 5.008-2.68 6.58-3.7 2.767-8.32 4.441-13.33 4.441-11.93 0-21.62-9.471-21.62-21.135 0-11.665 9.69-21.135 21.62-21.135 2.99 0 5.83.594 8.43 1.669 2.4.977 4.08 3.14 4.39 5.663.32 2.524-.77 5.02-2.86 6.537-.26.221-.53.419-.8.61-1.71 1.24-3.99 1.417-5.88.456-.97-.526-2.09-.81-3.28-.81-3.96 0-7.17 3.141-7.17 7.01s3.21 7.01 7.17 7.01c1.64 0 3.15-.541 4.36-1.449 2.03-1.543 4.74-1.915 7.13-.975.03-.045.03-.042.04-.039z" fill="#e656e6" transform="matrix(5.49784 0 0 7.29258 -29970.8 -1016.11)"/></g></svg>