<svg height="125.29531mm" viewBox="0 0 126.47111 125.29531" width="126.47111mm" xmlns="http://www.w3.org/2000/svg" xmlns:xlink="http://www.w3.org/1999/xlink"><clipPath id="a"><path d="m640.59235 802.59263c153.2547 0 277.68324 1.18749 277.68324 50.44871 0 49.26115-124.42854 128.06198-277.68324 128.06198s-277.68323-78.80083-277.68323-128.06198c0-49.26122 124.42853-50.44871 277.68323-50.44871z"/></clipPath><clipPath id="b"><path d="m640.59213 802.59263c153.2547 0 277.68323 1.18749 277.68323 50.44871 0 49.26115-124.42853 128.06198-277.68323 128.06198s-277.68324-78.80083-277.68324-128.06198c0-49.26122 124.42854-50.44871 277.68324-50.44871z"/></clipPath><g clip-rule="evenodd" fill-rule="evenodd" stroke-linejoin="round" stroke-miterlimit="2" transform="matrix(.72413462 0 0 .72413462 -11.32523 -43.536425)"><path d="m151.04323 125.71711c4.33319 7.8457 6.79055 16.86194 6.79055 26.44843 0 .95387-.0188 1.9021-.0657 2.84378-.0844 1.56351.39393 3.10452 1.33185 4.35383 3.1139 4.10622 4.8303 8.62981 4.8303 13.37756 0 18.92725-27.31227 34.29321-60.96487 34.29321-33.643223 0-60.964863-15.36596-60.964863-34.29321 0-4.02837 1.238056-7.89448 3.517204-11.48671 1.678878-2.69653 2.5699-5.8123 2.560523-8.98998.01877-.0328.01877-.0656.01877-.0985 0-9.58649 2.46673-18.60273 6.799925-26.44843l-8.694532-8.68796c-1.463157-1.46597-1.463157-3.84079 0-5.30582l9.163489-9.1588c1.463157-1.46503 3.836095-1.46503 5.30863 0l7.325164 7.33079c2.916937-2.4114 6.077729-4.52828 9.444862-6.30471l-2.485491-9.276972c-.534611-2.001519.656547-4.058379 2.654321-4.594871l12.511863-3.352131c1.997773-.536488 4.061196.650917 4.595812 2.652443l2.297906 8.596982c1.960257-.211032 3.939267-.318894 5.946417-.318894 2.01653 0 3.99554.107862 5.95579.318894l2.29791-8.596982c.53462-2.001526 2.59804-3.188931 4.59582-2.652443l12.51186 3.352131c1.99777.536492 3.18893 2.593352 2.65432 4.594871l-2.4855 9.276972c3.36714 1.77643 6.53731 3.89331 9.44487 6.30471l7.33454-7.33079c1.46316-1.46503 3.8361-1.46503 5.29926 0l9.16348 9.1588c1.46317 1.46503 1.46317 3.83985 0 5.30582z" fill="#e656e6" stroke-width=".937924"/><path d="m67.684753 160.65677c-4.439126-3.04185-7.358819-8.15329-7.358819-13.94104 0-9.31819 7.567369-16.88258 16.882574-16.88258 9.315211 0 16.882574 7.56439 16.882574 16.88258 0 6.03304-3.167961 11.33119-7.934806 14.31643-5.313048-2.42613-12.18525-2.13515-18.471523-.37539z" fill="#fff" stroke-width=".993091"/><path d="m119.79195 161.03216c-4.76684-2.98524-7.93481-8.28339-7.93481-14.31643 0-9.31819 7.56737-16.88258 16.88257-16.88258 9.31521 0 16.88258 7.56439 16.88258 16.88258 0 5.78775-2.9197 10.89919-7.35882 13.94104-6.28628-1.75976-13.15848-2.05074-18.47152.37539z" fill="#fff" stroke-width=".993091"/><path d="m72.474777 145.31967c1.172402-3.54628 4.52078-6.10774 8.460045-6.10774 4.91471 0 8.910252 3.99273 8.910252 8.91025s-3.995542 8.91025-8.910252 8.91025c-3.939265 0-7.287643-2.56146-8.460045-6.10774l5.514975-2.80251z" fill="#4e4edc" stroke-width=".937924"/><path d="m116.95985 145.57197c1.09737-3.67665 4.50203-6.36004 8.53508-6.36004 4.91471 0 8.91026 3.99273 8.91026 8.91025s-3.99555 8.91025-8.91026 8.91025c-4.03305 0-7.43771-2.68339-8.53508-6.36004l5.0085-2.55021z" fill="#4e4edc" stroke-width=".937924"/><path d="m102.97597 169.22472c21.74101 0 39.39268.16846 39.39268 7.15675s-17.65167 18.16712-39.39268 18.16712-39.392684-11.17883-39.392684-18.16712 17.651674-7.15675 39.392684-7.15675z" fill="#791279" stroke-width="1.01621"/><g fill="#fff" stroke-width="6.61151"><path clip-path="url(#a)" d="m606.86706 748.56723v88.71981c0 16.15191-13.09078 29.26253-29.28897 29.26253h-87.73468c-16.19819 0-29.28897-13.11062-29.28897-29.26253v-88.71981c0-16.15192 13.09078-29.26253 29.28897-29.26253h87.73468c16.19819 0 29.28897 13.11061 29.28897 29.26253z" transform="matrix(.14186193 0 0 .14186193 12.100336 55.36738)"/><path clip-path="url(#b)" d="m820.64326 748.56723v88.71981c0 16.15191-13.09078 29.26253-29.28897 29.26253h-87.73468c-16.19819 0-29.28897-13.11062-29.28897-29.26253v-88.71981c0-16.15192 13.09078-29.26253 29.28897-29.26253h87.73468c16.19819 0 29.28897 13.11061 29.28897 29.26253z" transform="matrix(.14186193 0 0 .14186193 12.100336 55.36738)"/></g></g></svg>