<svg height="16" viewBox="0 0 4.2333333 4.2333332" width="16" xmlns="http://www.w3.org/2000/svg"><path d="m.52916666.2635498c-.14693391-.00056472-.26618158.11868295-.26561686.26561686v3.17603344c.00051711.1461706.11944642.2641114.26561686.2635498h.79323324l.5296833-.0000001v-1.5874999h-.5291666l-.0005167 1.0583334h-.52968344v-2.64686684h1.58801674v.79530024c.0005171.1461706.1194464.2641115.2656168.2635498h.7932333v1.5880168h-.5296835s-.2640665 0-.2640665.2645833.2640665.2645833.2640665.2645833h.7953003c.1454083-.0005146.2630352-.1181415.2635498-.2635498v-2.1171834c.0005616-.1461704-.1173792-.2650997-.2635498-.2656168h-.7953003v-.79323324c.0005617-.14617044-.1173792-.26509975-.2635498-.26561686z" fill="#e656e6" stroke-linecap="square" stroke-linejoin="round"/></svg>