<?xml version="1.0" encoding="UTF-8" standalone="no"?>
<!DOCTYPE svg PUBLIC "-//W3C//DTD SVG 1.1//EN" "http://www.w3.org/Graphics/SVG/1.1/DTD/svg11.dtd">
<svg width="100%" height="100%" viewBox="0 0 1921 1920" version="1.1" xmlns="http://www.w3.org/2000/svg" xmlns:xlink="http://www.w3.org/1999/xlink" xml:space="preserve" xmlns:serif="http://www.serif.com/" style="fill-rule:evenodd;clip-rule:evenodd;stroke-linejoin:round;stroke-miterlimit:2;">
    <g transform="matrix(1,0,0,1,-10486,0)">
        <g id="mascot-2" transform="matrix(1,0,0,4.29989,2322.81,0)">
            <rect x="8163.42" y="0" width="1920" height="446.523" style="fill:none;"/>
            <g transform="matrix(7.0657,0,0,1.64323,-16180.2,-362.734)">
                <path d="M3448.62,426.723L3487.25,405.337L3566.39,421.292L3575.44,405.337L3710.94,481.229L3501.76,473.277L3534.29,453.481L3448.62,426.723Z" style="fill:rgb(55,55,215);"/>
            </g>
            <g transform="matrix(7.0657,0,0,1.64323,-16180.2,-386.566)">
                <path d="M3448.62,426.723L3487.25,405.337L3566.39,421.292L3575.44,405.337L3710.94,481.229L3501.76,473.277L3534.29,453.481L3448.62,426.723Z" style="fill:rgb(243,243,16);"/>
            </g>
            <g transform="matrix(6.20416,0.280559,-1.28431,1.53608,4051.63,-446.426)">
                <ellipse cx="880.5" cy="352.5" rx="63.5" ry="8.5" style="fill:rgb(38,41,106);fill-opacity:0.3;"/>
            </g>
            <g transform="matrix(8.23862,0,0,1.50275,-6140.67,-262.323)">
                <path d="M1804.03,382.165C1803.45,381.112 1802.84,379.895 1802.26,378.561C1801.78,377.474 1800.43,373.741 1799.75,370.574C1798.33,363.883 1797.81,354.967 1801.87,345.616C1807.13,333.529 1818.05,327.736 1818.99,327.174L1825.68,344.502C1815.64,351.525 1814.23,357.864 1817.2,365.599C1817.29,365.84 1818.43,368.537 1819.13,369.906C1820.31,372.19 1822.01,377.354 1823.08,381.16C1824,384.443 1824.55,393.71 1824.55,393.71C1824.64,394.757 1824.34,395.8 1823.73,396.516C1823.13,397.231 1822.29,397.53 1821.48,397.321L1794.88,390.469C1793.66,390.154 1792.79,388.769 1792.81,387.178C1792.84,385.588 1793.75,384.25 1794.98,384L1804.03,382.165Z" style="fill:rgb(230,86,230);"/>
            </g>
            <g transform="matrix(-8.23862,0,0,1.50275,24317.3,-262.323)">
                <path d="M1810.49,403.19L1800.44,409.343C1799.32,410.032 1798.74,411.648 1799.07,413.181C1799.4,414.714 1800.55,415.725 1801.79,415.582L1828.81,412.461C1829.63,412.366 1830.37,411.773 1830.8,410.866C1831.22,409.959 1831.27,408.849 1830.94,407.881C1830.94,407.881 1825.65,392.627 1824.48,387.618C1824.44,387.441 1823.43,382.606 1823.16,381.182C1821.78,373.677 1821.56,367.067 1821.68,362.836C1821.94,353.293 1823.92,348.085 1824.45,346.617L1811.16,337.355C1811.13,337.421 1806.18,346.99 1805.13,365.77C1804.39,378.855 1806.09,388.262 1806.39,390.034C1806.47,390.52 1807.36,394.679 1808.39,397.781C1808.95,399.483 1809.55,401.078 1810.12,402.442C1810.14,402.493 1810.11,402.558 1810.49,403.19Z" style="fill:rgb(230,86,230);"/>
            </g>
            <g transform="matrix(-7.80656,-0.763238,3.19282,-1.76627,14839.5,1407.22)">
                <path d="M959.172,270.831C961.712,286.697 957.649,297.269 951.946,304.368C941.349,317.561 923.564,318.979 923.564,318.979C919.28,319.299 915.549,315.984 915.238,311.58C914.926,307.176 918.151,303.341 922.436,303.021C922.436,303.021 933.431,302.288 939.943,294.181C943,290.376 944.779,285.004 944.276,277.487L933.118,272.725C931.134,271.879 930.193,269.536 931.016,267.497C931.84,265.458 934.119,264.49 936.102,265.337L939.042,266.591C939.042,266.591 936.313,257.157 938.051,254.129C939.79,251.1 940.185,250.578 943.604,250.465C943.604,250.465 952.704,252.707 955.811,254.567C958.696,256.293 959.255,259.882 959.16,262.754L959.172,270.831Z" style="fill:rgb(230,86,230);"/>
            </g>
            <g transform="matrix(7.80656,0.763238,-3.19282,1.76627,3408.37,-1067.8)">
                <path d="M958.889,269.02C964.157,284.617 962.507,295.206 958.388,302.301C953.727,310.327 945.447,314.623 936.928,316.465C925.901,318.85 914.831,317.154 914.831,317.154C910.583,316.504 907.647,312.43 908.28,308.063C908.912,303.696 912.875,300.678 917.124,301.328C917.124,301.328 925.439,302.599 933.723,300.808C938.082,299.865 942.637,298.207 945.021,294.101C947.488,289.852 947.435,283.717 944.372,274.73L932.998,270.974C930.953,270.299 929.826,268.044 930.483,265.942C931.14,263.84 933.333,262.682 935.378,263.357L937.597,264.09C937.597,264.09 937.562,259.621 936.617,255.769C935.478,251.126 947.298,251.153 947.298,251.153C952.654,251.279 956.359,253.64 957.174,256.862L958.889,269.02Z" style="fill:rgb(230,86,230);"/>
            </g>
            <g transform="matrix(8.21434,0.146994,-0.632059,1.91036,-13336.5,-771.503)">
                <path d="M2808.23,244.612C2812.85,252.977 2815.47,262.59 2815.47,272.811C2815.47,273.828 2815.45,274.839 2815.4,275.843C2815.31,277.51 2815.82,279.153 2816.82,280.485C2820.14,284.863 2821.97,289.686 2821.97,294.748C2821.97,314.928 2792.85,331.311 2756.97,331.311C2721.1,331.311 2691.97,314.928 2691.97,294.748C2691.97,290.453 2693.29,286.331 2695.72,282.501C2697.51,279.626 2698.46,276.304 2698.45,272.916C2698.47,272.881 2698.47,272.846 2698.47,272.811C2698.47,262.59 2701.1,252.977 2705.72,244.612L2696.45,235.349C2694.89,233.786 2694.89,231.254 2696.45,229.692L2706.22,219.927C2707.78,218.365 2710.31,218.365 2711.88,219.927L2719.69,227.743C2722.8,225.172 2726.17,222.915 2729.76,221.021L2727.11,211.13C2726.54,208.996 2727.81,206.803 2729.94,206.231L2743.28,202.657C2745.41,202.085 2747.61,203.351 2748.18,205.485L2750.63,214.651C2752.72,214.426 2754.83,214.311 2756.97,214.311C2759.12,214.311 2761.23,214.426 2763.32,214.651L2765.77,205.485C2766.34,203.351 2768.54,202.085 2770.67,202.657L2784.01,206.231C2786.14,206.803 2787.41,208.996 2786.84,211.13L2784.19,221.021C2787.78,222.915 2791.16,225.172 2794.26,227.743L2802.08,219.927C2803.64,218.365 2806.17,218.365 2807.73,219.927L2817.5,229.692C2819.06,231.254 2819.06,233.786 2817.5,235.349L2808.23,244.612Z" style="fill:rgb(230,86,230);"/>
            </g>
            <g transform="matrix(8.69754,0.155641,-0.669239,2.02273,-9423.23,-729.623)">
                <path d="M2119.41,280.038C2114.94,276.975 2112,271.828 2112,266C2112,256.617 2119.62,249 2129,249C2138.38,249 2146,256.617 2146,266C2146,272.075 2142.81,277.41 2138.01,280.416C2132.66,277.973 2125.74,278.266 2119.41,280.038Z" style="fill:white;"/>
            </g>
            <g transform="matrix(8.69754,0.155641,-0.669239,2.02273,-8971.89,-721.546)">
                <path d="M2119.99,280.416C2115.19,277.41 2112,272.075 2112,266C2112,256.617 2119.62,249 2129,249C2138.38,249 2146,256.617 2146,266C2146,271.828 2143.06,276.975 2138.59,280.038C2132.26,278.266 2125.34,277.973 2119.99,280.416Z" style="fill:white;"/>
            </g>
            <g transform="matrix(8.21434,0.146994,-0.632059,1.91036,-8432.11,-685.662)">
                <path d="M2127.48,266.512C2128.73,262.731 2132.3,260 2136.5,260C2141.74,260 2146,264.257 2146,269.5C2146,274.743 2141.74,279 2136.5,279C2132.3,279 2128.73,276.269 2127.48,272.488L2133.36,269.5L2127.48,266.512Z" style="fill:rgb(78,78,220);"/>
            </g>
            <g transform="matrix(8.21434,0.146994,-0.632059,1.91036,-8041.86,-678.678)">
                <path d="M2127.4,266.781C2128.57,262.861 2132.2,260 2136.5,260C2141.74,260 2146,264.257 2146,269.5C2146,274.743 2141.74,279 2136.5,279C2132.2,279 2128.57,276.139 2127.4,272.219L2132.74,269.5L2127.4,266.781Z" style="fill:rgb(78,78,220);"/>
            </g>
            <g transform="matrix(8.21434,0.146994,-0.741982,2.24259,-8400.75,-780.432)">
                <path d="M2160,291C2183.18,291 2202,291.153 2202,297.5C2202,303.847 2183.18,314 2160,314C2136.82,314 2118,303.847 2118,297.5C2118,291.153 2136.82,291 2160,291Z" style="fill:rgb(121,18,121);"/>
                <clipPath id="_clip1">
                    <path d="M2160,291C2183.18,291 2202,291.153 2202,297.5C2202,303.847 2183.18,314 2160,314C2136.82,314 2118,303.847 2118,297.5C2118,291.153 2136.82,291 2160,291Z"/>
                </clipPath>
                <g clip-path="url(#_clip1)">
                    <g transform="matrix(1.58272,0,0,1.06725,764.154,-49.5401)">
                        <ellipse cx="881.931" cy="347.5" rx="27.931" ry="19.5" style="fill:rgb(208,31,208);"/>
                    </g>
                    <g transform="matrix(1,0,0,0.851852,-69.9875,17.0466)">
                        <g transform="matrix(1,0,0,1,606.886,4)">
                            <path d="M1618,309.426L1618,322.845C1618,325.288 1616.02,327.271 1613.57,327.271L1600.3,327.271C1597.85,327.271 1595.87,325.288 1595.87,322.845L1595.87,309.426C1595.87,306.983 1597.85,305 1600.3,305L1613.57,305C1616.02,305 1618,306.983 1618,309.426Z" style="fill:white;"/>
                        </g>
                        <g transform="matrix(1,0,0,1,639.22,4)">
                            <path d="M1618,309.426L1618,322.845C1618,325.288 1616.02,327.271 1613.57,327.271L1600.3,327.271C1597.85,327.271 1595.87,325.288 1595.87,322.845L1595.87,309.426C1595.87,306.983 1597.85,305 1600.3,305L1613.57,305C1616.02,305 1618,306.983 1618,309.426Z" style="fill:white;"/>
                        </g>
                    </g>
                </g>
            </g>
            <g transform="matrix(0.361701,0.266496,-0.977922,0.161084,5317.29,-2749.43)">
                <path d="M10638.3,895.031C10629.8,886.53 10632.3,870.081 10643.9,858.321C10655.6,846.561 10672,843.915 10680.6,852.416L10752.3,923.531C10760.9,932.032 10758.4,948.481 10746.8,960.241C10735.1,972.001 10718.7,974.647 10710.1,966.146L10638.3,895.031Z" style="fill:rgb(230,86,230);"/>
            </g>
            <g transform="matrix(0.492424,0.323954,-0.902619,0.269937,5484.08,-3615.03)">
                <path d="M10638.3,895.031C10631.9,888.657 10636.2,873.936 10647.8,862.176C10659.5,850.416 10674.2,846.042 10680.6,852.416L10752.3,923.531C10758.8,929.905 10754.5,944.626 10742.9,956.386C10731.2,968.146 10716.5,972.52 10710.1,966.146L10638.3,895.031Z" style="fill:rgb(230,86,230);"/>
            </g>
        </g>
    </g>
</svg>
