<?xml version="1.0" encoding="UTF-8" standalone="no"?>
<!DOCTYPE svg PUBLIC "-//W3C//DTD SVG 1.1//EN" "http://www.w3.org/Graphics/SVG/1.1/DTD/svg11.dtd">
<svg width="100%" height="100%" viewBox="0 0 222 32" version="1.1" xmlns="http://www.w3.org/2000/svg" xmlns:xlink="http://www.w3.org/1999/xlink" xml:space="preserve" xmlns:serif="http://www.serif.com/" style="fill-rule:evenodd;clip-rule:evenodd;stroke-miterlimit:10;">
    <g transform="matrix(1,0,0,1,-288,-896)">
        <g id="simple_click_settings_popup_icons_high_res" transform="matrix(1,0,0,1,-23,-7)">
            <g id="btn_save" transform="matrix(1,0,0,1,-400,468)">
                <g transform="matrix(2.7234,0,0,2.28571,-1166.11,-609.571)">
                    <rect x="689.25" y="457" width="11.75" height="14" style="fill:rgb(255,0,0);fill-opacity:0;"/>
                </g>
                <g transform="matrix(0.875,0,0,0.125,90.6146,406.625)">
                    <path d="M743.298,451C743.298,459.831 742.273,467 741.012,467L713.583,467C712.322,467 711.298,459.831 711.298,451C711.298,442.169 712.322,435 713.583,435L741.012,435C742.273,435 743.298,442.169 743.298,451Z" style="fill:white;"/>
                </g>
                <g transform="matrix(0.125,0,0,0.25,624.088,348.25)">
                    <path d="M743.298,443L743.298,459C743.298,463.415 736.128,467 727.298,467C718.467,467 711.298,463.415 711.298,459L711.298,443C711.298,438.585 718.467,435 727.298,435C736.128,435 743.298,438.585 743.298,443Z" style="fill:white;"/>
                </g>
                <g transform="matrix(0.125,0,0,0.25,648.088,348.25)">
                    <path d="M743.298,443L743.298,459C743.298,463.415 736.128,467 727.298,467C718.467,467 711.298,463.415 711.298,459L711.298,443C711.298,438.585 718.467,435 727.298,435C736.128,435 743.298,438.585 743.298,443Z" style="fill:white;"/>
                </g>
                <g transform="matrix(4.89859e-17,0.8,-1.42857,8.74748e-17,1371.29,-139)">
                    <path d="M735,454.5L735,458L720,451L735,444L735,447.5L745,447.5L745,444L745,458L745,454.5L735,454.5Z" style="fill:white;"/>
                </g>
            </g>
            <g id="btn_load" transform="matrix(1,0,0,1,-368,468)">
                <g transform="matrix(2.7234,0,0,2.28571,-1166.11,-609.571)">
                    <rect x="689.25" y="457" width="11.75" height="14" style="fill:rgb(255,0,0);fill-opacity:0;"/>
                </g>
                <g transform="matrix(0.875,0,0,0.125,90.6146,406.625)">
                    <path d="M743.298,451C743.298,459.831 742.273,467 741.012,467L713.583,467C712.322,467 711.298,459.831 711.298,451C711.298,442.169 712.322,435 713.583,435L741.012,435C742.273,435 743.298,442.169 743.298,451Z" style="fill:white;"/>
                </g>
                <g transform="matrix(0.125,0,0,0.25,624.088,348.25)">
                    <path d="M743.298,443L743.298,459C743.298,463.415 736.128,467 727.298,467C718.467,467 711.298,463.415 711.298,459L711.298,443C711.298,438.585 718.467,435 727.298,435C736.128,435 743.298,438.585 743.298,443Z" style="fill:white;"/>
                </g>
                <g transform="matrix(0.125,0,0,0.25,648.088,348.25)">
                    <path d="M743.298,443L743.298,459C743.298,463.415 736.128,467 727.298,467C718.467,467 711.298,463.415 711.298,459L711.298,443C711.298,438.585 718.467,435 727.298,435C736.128,435 743.298,438.585 743.298,443Z" style="fill:white;"/>
                </g>
                <g transform="matrix(5.8783e-17,-0.8,-1.42857,-7.15703e-17,1371.29,1033)">
                    <path d="M735,454.5L735,458L720,451L735,444L735,447.5L745,447.5L745,444L745,458L745,454.5L735,454.5Z" style="fill:white;"/>
                </g>
            </g>
            <g id="btn_history" transform="matrix(1,0,0,1,-336,468)">
                <g transform="matrix(2.7234,0,0,2.28571,-1166.11,-609.571)">
                    <rect x="689.25" y="457" width="11.75" height="14" style="fill:rgb(255,0,0);fill-opacity:0;"/>
                </g>
                <g transform="matrix(1,0,0,1,-5.68434e-14,-92)">
                    <path d="M737,551L737,553L722,553C719.24,553 717,550.76 717,548L717,534C717,531.24 719.24,529 722,529L737,529L737,547L721,547C719.896,547 719,547.896 719,549C719,550.104 719.896,551 721,551L737,551ZM733,534C733,533.448 732.552,533 732,533L724,533C723.448,533 723,533.448 723,534L723,536C723,536.552 723.448,537 724,537L732,537C732.552,537 733,536.552 733,536L733,534Z" style="fill:white;"/>
                </g>
                <g transform="matrix(1,0,0,2,0,-649)">
                    <path d="M725,553L725,557L723.022,556L721,557L721,553L725,553Z" style="fill:white;"/>
                </g>
            </g>
            <g id="btn_quit" transform="matrix(1,0,0,1,-304,468)">
                <g transform="matrix(2.7234,0,0,2.28571,-1166.11,-609.571)">
                    <rect x="689.25" y="457" width="11.75" height="14" style="fill:rgb(255,0,0);fill-opacity:0;"/>
                </g>
                <g transform="matrix(0.75,0,0,0.857143,178.25,-84.1429)">
                    <path d="M741,608L741,636L713,636L713,608L741,608ZM739.667,609.167L714.333,609.167L714.333,634.833L739.667,634.833L739.667,609.167Z" style="fill:white;"/>
                </g>
                <g transform="matrix(0.428571,0.142857,0,0.857143,407.429,-186)">
                    <rect x="713" y="608" width="28" height="28" style="fill:white;"/>
                </g>
                <g transform="matrix(1,0,0,1,0,-175)">
                    <g transform="matrix(1,-0,-0,1,615,610)">
                        <path d="M122.293,11L125.293,14L122.293,17" style="fill:none;stroke:white;stroke-width:1px;"/>
                        <path d="M114,14L125.293,14" style="fill:none;stroke:white;stroke-width:1px;stroke-linejoin:round;stroke-miterlimit:1.5;"/>
                    </g>
                </g>
            </g>
            <g id="btn_volume">
                <g transform="matrix(0.392081,0,0,0.394227,41.4752,698.78)">
                    <g transform="matrix(1,0,0,1,989.395,508.61)">
                        <path d="M68.398,80.441C68.039,80.441 67.679,80.339 67.359,80.152L44.257,66.004C43.667,65.645 43.296,64.992 43.296,64.293L43.296,35.715C43.296,35.016 43.655,34.375 44.257,34.004L67.359,19.856C67.98,19.477 68.75,19.466 69.378,19.817C70.007,20.169 70.398,20.837 70.398,21.555L70.398,78.434C70.398,79.153 70.007,79.825 69.378,80.173C69.078,80.345 68.738,80.434 68.398,80.434L68.398,80.441ZM47.3,63.171L66.402,74.87L66.398,25.128L47.296,36.827L47.296,63.167L47.3,63.171Z" style="fill:white;fill-rule:nonzero;"/>
                    </g>
                    <g transform="matrix(1,0,0,1,989.395,508.61)">
                        <path d="M45.301,66.301L31.59,66.301C30.488,66.301 29.59,65.403 29.59,64.301L29.59,35.692C29.59,34.59 30.488,33.692 31.59,33.692L45.301,33.692C46.403,33.692 47.301,34.59 47.301,35.692L47.301,64.301C47.301,65.403 46.403,66.301 45.301,66.301ZM33.602,62.301L43.313,62.301L43.313,37.692L33.602,37.692L33.602,62.301Z" style="fill:white;fill-rule:nonzero;"/>
                    </g>
                </g>
                <g transform="matrix(1,0,0,0.555556,0,408.444)">
                    <path d="M460,910L460,928" style="fill:none;stroke:white;stroke-width:2.47px;stroke-linecap:round;stroke-linejoin:round;stroke-miterlimit:1.5;"/>
                </g>
                <g transform="matrix(1,0,0,0.888889,4,102.111)">
                    <path d="M460,910L460,928" style="fill:none;stroke:white;stroke-width:2.11px;stroke-linecap:round;stroke-linejoin:round;stroke-miterlimit:1.5;"/>
                </g>
                <g transform="matrix(1,0,0,1.22222,8,-204.222)">
                    <path d="M460,910L460,928" style="fill:none;stroke:white;stroke-width:1.79px;stroke-linecap:round;stroke-linejoin:round;stroke-miterlimit:1.5;"/>
                </g>
            </g>
            <g transform="matrix(1.55556,0,0,1.55556,-240.111,-457.667)">
                <g id="btn_dialogue_speed">
                    <path d="M497,877.286L497,889.5C497,890.21 496.424,890.786 495.714,890.786L485.429,890.786L482.214,894L482.214,890.786L480.286,890.786C479.576,890.786 479,890.21 479,889.5L479,877.286C479,876.576 479.576,876 480.286,876L495.714,876C496.424,876 497,876.576 497,877.286ZM485.429,882.75C485.429,882.395 485.141,882.107 484.786,882.107L481.571,882.107C481.216,882.107 480.929,882.395 480.929,882.75L480.929,883.393C480.929,883.748 481.216,884.036 481.571,884.036L484.786,884.036C485.141,884.036 485.429,883.748 485.429,883.393L485.429,882.75ZM493.561,883.56C493.704,883.437 493.786,883.259 493.786,883.071C493.786,882.884 493.704,882.705 493.561,882.583L489.061,878.726C488.871,878.563 488.602,878.525 488.374,878.63C488.146,878.735 488,878.963 488,879.214L488,886.929C488,887.18 488.146,887.408 488.374,887.513C488.602,887.618 488.871,887.58 489.061,887.417L493.561,883.56ZM486.714,885.643C486.714,885.288 486.426,885 486.071,885L484.143,885C483.788,885 483.5,885.288 483.5,885.643L483.5,886.286C483.5,886.641 483.788,886.929 484.143,886.929L486.071,886.929C486.426,886.929 486.714,886.641 486.714,886.286L486.714,885.643ZM486.714,879.857C486.714,879.502 486.426,879.214 486.071,879.214L484.143,879.214C483.788,879.214 483.5,879.502 483.5,879.857L483.5,880.5C483.5,880.855 483.788,881.143 484.143,881.143L486.071,881.143C486.426,881.143 486.714,880.855 486.714,880.5L486.714,879.857Z" style="fill:white;"/>
                </g>
            </g>
            <g transform="matrix(1.55556,0,0,1.55556,-272.111,-457.667)">
                <g id="btn_dialogue_advancement">
                    <path d="M497,877.286L497,889.5C497,890.21 496.424,890.786 495.714,890.786L485.429,890.786L482.214,894L482.214,890.786L480.286,890.786C479.576,890.786 479,890.21 479,889.5L479,877.286C479,876.576 479.576,876 480.286,876L495.714,876C496.424,876 497,876.576 497,877.286ZM493.786,879.214C493.786,878.859 493.498,878.571 493.143,878.571L490.571,878.571C490.216,878.571 489.929,878.859 489.929,879.214L489.929,886.929C489.929,887.284 490.216,887.571 490.571,887.571L493.143,887.571C493.498,887.571 493.786,887.284 493.786,886.929L493.786,879.214ZM487.776,883.56C487.918,883.437 488,883.259 488,883.071C488,882.884 487.918,882.705 487.776,882.583L483.276,878.726C483.085,878.563 482.817,878.525 482.589,878.63C482.36,878.735 482.214,878.963 482.214,879.214L482.214,886.929C482.214,887.18 482.36,887.408 482.589,887.513C482.817,887.618 483.085,887.58 483.276,887.417L487.776,883.56Z" style="fill:white;"/>
                </g>
            </g>
        </g>
    </g>
</svg>
