<?xml version="1.0" encoding="UTF-8" standalone="no"?>
<!DOCTYPE svg PUBLIC "-//W3C//DTD SVG 1.1//EN" "http://www.w3.org/Graphics/SVG/1.1/DTD/svg11.dtd">
<svg width="100%" height="100%" viewBox="0 0 40 80" version="1.1" xmlns="http://www.w3.org/2000/svg" xmlns:xlink="http://www.w3.org/1999/xlink" xml:space="preserve" xmlns:serif="http://www.serif.com/" style="fill-rule:evenodd;clip-rule:evenodd;stroke-linecap:round;stroke-linejoin:round;stroke-miterlimit:1.5;">
    <g transform="matrix(1,0,0,1,-952,-896)">
        <g id="simple_click_settings_button_high_res" transform="matrix(1,0,0,1,-888,857)">
            <g transform="matrix(1.90476,0,0,1.48148,-1600,-38.037)">
                <rect x="1806" y="79" width="21" height="27" style="fill:rgb(255,0,0);fill-opacity:0;"/>
            </g>
            <g id="pressed" transform="matrix(1,0,0,1,0,40)">
                <g transform="matrix(1.41667,0,0,1.54545,-457.667,-245.455)">
                    <rect x="1624" y="186" width="24" height="22" style="fill:none;stroke:white;stroke-width:1.35px;"/>
                </g>
                <g transform="matrix(1.5,0,0,1.5,-592.5,-238)">
                    <rect x="1627" y="191" width="16" height="5" style="fill:none;stroke:white;stroke-width:1.33px;"/>
                </g>
                <g transform="matrix(1.5,0,0,1.5,-592.5,-224.5)">
                    <rect x="1627" y="191" width="16" height="5" style="fill:none;stroke:white;stroke-width:1.33px;"/>
                </g>
            </g>
            <g transform="matrix(1.90476,0,0,1.48148,-1600,-78.037)">
                <rect x="1806" y="79" width="21" height="27" style="fill:rgb(255,0,0);fill-opacity:0;"/>
            </g>
            <g id="normal" opacity="0.5">
                <g transform="matrix(1.41667,0,0,1.54545,-457.667,-245.455)">
                    <rect x="1624" y="186" width="24" height="22" style="fill:none;stroke:white;stroke-width:1.35px;"/>
                </g>
                <g transform="matrix(1.5,0,0,1.5,-592.5,-238)">
                    <rect x="1627" y="191" width="16" height="5" style="fill:none;stroke:white;stroke-width:1.33px;"/>
                </g>
                <g transform="matrix(1.5,0,0,1.5,-592.5,-224.5)">
                    <rect x="1627" y="191" width="16" height="5" style="fill:none;stroke:white;stroke-width:1.33px;"/>
                </g>
            </g>
        </g>
    </g>
</svg>
