<?xml version="1.0" encoding="UTF-8" standalone="no"?>
<!DOCTYPE svg PUBLIC "-//W3C//DTD SVG 1.1//EN" "http://www.w3.org/Graphics/SVG/1.1/DTD/svg11.dtd">
<svg width="100%" height="100%" viewBox="0 0 256 64" version="1.1" xmlns="http://www.w3.org/2000/svg" xmlns:xlink="http://www.w3.org/1999/xlink" xml:space="preserve" xmlns:serif="http://www.serif.com/" style="fill-rule:evenodd;clip-rule:evenodd;stroke-linejoin:round;stroke-miterlimit:2;">
    <g transform="matrix(1,0,0,1,-320,-544)">
        <g id="btn_up_high_res" transform="matrix(2,0,0,2,-832,-864)">
            <g id="normal">
                <rect x="576" y="704" width="32" height="32" style="fill:rgb(255,0,0);fill-opacity:0;"/>
                <g transform="matrix(1,0,0,1,576,704)">
                    <path d="M22,16L21,16L21,25C21,25.8 20.717,26.517 20.15,27.15C19.517,27.717 18.8,28 18,28L14,28C13.2,28 12.5,27.717 11.9,27.15C11.3,26.517 11,25.8 11,25L11,16L10,16C9.2,16 8.5,15.717 7.9,15.15C7.3,14.517 7,13.8 7,13C7,12.2 7.3,11.5 7.9,10.9L13.9,4.9C14.5,4.3 15.2,4 16,4C16.8,4 17.517,4.3 18.15,4.9L24.15,10.9C24.717,11.5 25,12.2 25,13C25,13.8 24.717,14.517 24.15,15.15C23.517,15.717 22.8,16 22,16M22,14L22.7,13.7L23,13L22.7,12.3L16.7,6.3C16.5,6.1 16.267,6 16,6C15.733,6 15.5,6.1 15.3,6.3L9.3,12.3C9.1,12.5 9,12.733 9,13C9,13.267 9.1,13.5 9.3,13.7C9.5,13.9 9.733,14 10,14L13,14L13,25C13,25.267 13.1,25.5 13.3,25.7C13.5,25.9 13.733,26 14,26L18,26C18.267,26 18.5,25.9 18.7,25.7L19,25L19,14L22,14" style="fill-rule:nonzero;"/>
                </g>
                <g transform="matrix(1,0,0,1,576,704)">
                    <path d="M22,14L19,14L19,25L18.7,25.7C18.5,25.9 18.267,26 18,26L14,26C13.733,26 13.5,25.9 13.3,25.7C13.1,25.5 13,25.267 13,25L13,14L10,14C9.733,14 9.5,13.9 9.3,13.7C9.1,13.5 9,13.267 9,13C9,12.733 9.1,12.5 9.3,12.3L15.3,6.3C15.5,6.1 15.733,6 16,6C16.267,6 16.5,6.1 16.7,6.3L22.7,12.3L23,13L22.7,13.7L22,14" style="fill:white;fill-rule:nonzero;"/>
                </g>
            </g>
            <g id="hover">
                <g transform="matrix(1,0,0,1,32,0)">
                    <rect x="576" y="704" width="32" height="32" style="fill:rgb(255,0,0);fill-opacity:0;"/>
                </g>
                <g transform="matrix(1,0,0,1,608,704)">
                    <path d="M22,16L21,16L21,25C21,25.8 20.717,26.517 20.15,27.15C19.517,27.717 18.8,28 18,28L14,28C13.2,28 12.5,27.717 11.9,27.15C11.3,26.517 11,25.8 11,25L11,16L10,16C9.2,16 8.5,15.717 7.9,15.15C7.3,14.517 7,13.8 7,13C7,12.2 7.3,11.5 7.9,10.9L13.9,4.9C14.5,4.3 15.2,4 16,4C16.8,4 17.517,4.3 18.15,4.9L24.15,10.9C24.717,11.5 25,12.2 25,13C25,13.8 24.717,14.517 24.15,15.15C23.517,15.717 22.8,16 22,16M22,14L22.7,13.7L23,13L22.7,12.3L16.7,6.3C16.5,6.1 16.267,6 16,6C15.733,6 15.5,6.1 15.3,6.3L9.3,12.3C9.1,12.5 9,12.733 9,13C9,13.267 9.1,13.5 9.3,13.7C9.5,13.9 9.733,14 10,14L13,14L13,25C13,25.267 13.1,25.5 13.3,25.7C13.5,25.9 13.733,26 14,26L18,26C18.267,26 18.5,25.9 18.7,25.7L19,25L19,14L22,14" style="fill-rule:nonzero;"/>
                </g>
                <g transform="matrix(1,0,0,1,608,704)">
                    <path d="M22,14L19,14L19,25L18.7,25.7C18.5,25.9 18.267,26 18,26L14,26C13.733,26 13.5,25.9 13.3,25.7C13.1,25.5 13,25.267 13,25L13,14L10,14C9.733,14 9.5,13.9 9.3,13.7C9.1,13.5 9,13.267 9,13C9,12.733 9.1,12.5 9.3,12.3L15.3,6.3C15.5,6.1 15.733,6 16,6C16.267,6 16.5,6.1 16.7,6.3L22.7,12.3L23,13L22.7,13.7L22,14" style="fill:rgb(243,243,16);fill-rule:nonzero;"/>
                </g>
            </g>
            <g id="pressed">
                <g transform="matrix(1,0,0,1,64,0)">
                    <rect x="576" y="704" width="32" height="32" style="fill:rgb(255,0,0);fill-opacity:0;"/>
                </g>
                <g transform="matrix(1,0,0,1,640,704)">
                    <path d="M22,16L21,16L21,25C21,25.8 20.717,26.517 20.15,27.15C19.517,27.717 18.8,28 18,28L14,28C13.2,28 12.5,27.717 11.9,27.15C11.3,26.517 11,25.8 11,25L11,16L10,16C9.2,16 8.5,15.717 7.9,15.15C7.3,14.517 7,13.8 7,13C7,12.2 7.3,11.5 7.9,10.9L13.9,4.9C14.5,4.3 15.2,4 16,4C16.8,4 17.517,4.3 18.15,4.9L24.15,10.9C24.717,11.5 25,12.2 25,13C25,13.8 24.717,14.517 24.15,15.15C23.517,15.717 22.8,16 22,16M22,14L22.7,13.7L23,13L22.7,12.3L16.7,6.3C16.5,6.1 16.267,6 16,6C15.733,6 15.5,6.1 15.3,6.3L9.3,12.3C9.1,12.5 9,12.733 9,13C9,13.267 9.1,13.5 9.3,13.7C9.5,13.9 9.733,14 10,14L13,14L13,25C13,25.267 13.1,25.5 13.3,25.7C13.5,25.9 13.733,26 14,26L18,26C18.267,26 18.5,25.9 18.7,25.7L19,25L19,14L22,14" style="fill-rule:nonzero;"/>
                </g>
                <g transform="matrix(1,0,0,1,640,704)">
                    <path d="M22,14L19,14L19,25L18.7,25.7C18.5,25.9 18.267,26 18,26L14,26C13.733,26 13.5,25.9 13.3,25.7C13.1,25.5 13,25.267 13,25L13,14L10,14C9.733,14 9.5,13.9 9.3,13.7C9.1,13.5 9,13.267 9,13C9,12.733 9.1,12.5 9.3,12.3L15.3,6.3C15.5,6.1 15.733,6 16,6C16.267,6 16.5,6.1 16.7,6.3L22.7,12.3L23,13L22.7,13.7L22,14" style="fill:rgb(78,243,243);fill-rule:nonzero;"/>
                </g>
            </g>
            <g id="disabled">
                <g transform="matrix(1,0,0,1,96,0)">
                    <rect x="576" y="704" width="32" height="32" style="fill:rgb(255,0,0);fill-opacity:0;"/>
                </g>
                <g transform="matrix(1,0,0,1,672,704)">
                    <path d="M22,16L21,16L21,25C21,25.8 20.717,26.517 20.15,27.15C19.517,27.717 18.8,28 18,28L14,28C13.2,28 12.5,27.717 11.9,27.15C11.3,26.517 11,25.8 11,25L11,16L10,16C9.2,16 8.5,15.717 7.9,15.15C7.3,14.517 7,13.8 7,13C7,12.2 7.3,11.5 7.9,10.9L13.9,4.9C14.5,4.3 15.2,4 16,4C16.8,4 17.517,4.3 18.15,4.9L24.15,10.9C24.717,11.5 25,12.2 25,13C25,13.8 24.717,14.517 24.15,15.15C23.517,15.717 22.8,16 22,16M22,14L22.7,13.7L23,13L22.7,12.3L16.7,6.3C16.5,6.1 16.267,6 16,6C15.733,6 15.5,6.1 15.3,6.3L9.3,12.3C9.1,12.5 9,12.733 9,13C9,13.267 9.1,13.5 9.3,13.7C9.5,13.9 9.733,14 10,14L13,14L13,25C13,25.267 13.1,25.5 13.3,25.7C13.5,25.9 13.733,26 14,26L18,26C18.267,26 18.5,25.9 18.7,25.7L19,25L19,14L22,14" style="fill-rule:nonzero;"/>
                </g>
                <g transform="matrix(1,0,0,1,672,704)">
                    <path d="M22,14L19,14L19,25L18.7,25.7C18.5,25.9 18.267,26 18,26L14,26C13.733,26 13.5,25.9 13.3,25.7C13.1,25.5 13,25.267 13,25L13,14L10,14C9.733,14 9.5,13.9 9.3,13.7C9.1,13.5 9,13.267 9,13C9,12.733 9.1,12.5 9.3,12.3L15.3,6.3C15.5,6.1 15.733,6 16,6C16.267,6 16.5,6.1 16.7,6.3L22.7,12.3L23,13L22.7,13.7L22,14" style="fill:rgb(149,149,149);fill-rule:nonzero;"/>
                </g>
            </g>
        </g>
    </g>
</svg>
