<?xml version="1.0" encoding="UTF-8" standalone="no"?>
<!DOCTYPE svg PUBLIC "-//W3C//DTD SVG 1.1//EN" "http://www.w3.org/Graphics/SVG/1.1/DTD/svg11.dtd">
<svg width="100%" height="100%" viewBox="0 0 64 32" version="1.1" xmlns="http://www.w3.org/2000/svg" xmlns:xlink="http://www.w3.org/1999/xlink" xml:space="preserve" xmlns:serif="http://www.serif.com/" style="fill-rule:evenodd;clip-rule:evenodd;stroke-linejoin:round;stroke-miterlimit:2;">
    <g transform="matrix(1,0,0,1,-608,-896)">
        <g id="check_button_unchecked_high_res" transform="matrix(1,0,0,1,-17,-7)">
            <g transform="matrix(1.23077,0,0,1.33333,-168.846,-261)">
                <path d="M697,885C697,891.623 691.175,897 684,897L658,897C650.825,897 645,891.623 645,885C645,878.377 650.825,873 658,873L684,873C691.175,873 697,878.377 697,885ZM695.375,885C695.375,879.205 690.278,874.5 684,874.5L658,874.5C651.722,874.5 646.625,879.205 646.625,885C646.625,890.795 651.722,895.5 658,895.5L684,895.5C690.278,895.5 695.375,890.795 695.375,885Z" style="fill:white;"/>
            </g>
            <g transform="matrix(1,0,0,1,-16,0)">
                <circle cx="657" cy="919" r="12" style="fill:white;"/>
            </g>
        </g>
    </g>
</svg>
