<?xml version="1.0" encoding="UTF-8" standalone="no"?>
<!DOCTYPE svg PUBLIC "-//W3C//DTD SVG 1.1//EN" "http://www.w3.org/Graphics/SVG/1.1/DTD/svg11.dtd">
<svg width="100%" height="100%" viewBox="0 0 64 32" version="1.1" xmlns="http://www.w3.org/2000/svg" xmlns:xlink="http://www.w3.org/1999/xlink" xml:space="preserve" xmlns:serif="http://www.serif.com/" style="fill-rule:evenodd;clip-rule:evenodd;stroke-linejoin:round;stroke-miterlimit:2;">
    <g transform="matrix(1,0,0,1,-672,-896)">
        <g id="check_button_checked_high_res" transform="matrix(1,0,0,1,-21,-7)">
            <g transform="matrix(1.23077,0,0,1.33333,-100.846,-261)">
                <path d="M697,885C697,891.623 691.175,897 684,897L658,897C650.825,897 645,891.623 645,885C645,878.377 650.825,873 658,873L684,873C691.175,873 697,878.377 697,885ZM695.375,885C695.375,879.205 690.278,874.5 684,874.5L658,874.5C651.722,874.5 646.625,879.205 646.625,885C646.625,890.795 651.722,895.5 658,895.5L684,895.5C690.278,895.5 695.375,890.795 695.375,885Z" style="fill:rgb(0,250,244);"/>
            </g>
            <g transform="matrix(1,0,0,1,84,0)">
                <path d="M657,907C663.623,907 669,912.377 669,919C669,925.623 663.623,931 657,931C650.377,931 645,925.623 645,919C645,912.377 650.377,907 657,907ZM665.346,913.018L665.344,913.02C664.653,912.327 663.531,912.327 662.838,913.02L654.635,921.223L651.16,917.748C650.469,917.054 649.347,917.054 648.654,917.748C647.96,918.439 647.96,919.56 648.654,920.254L653.381,924.981C653.729,925.327 654.181,925.5 654.635,925.5C655.092,925.5 655.544,925.327 655.89,924.981L665.346,915.525C666.04,914.833 666.04,913.712 665.346,913.018Z" style="fill:rgb(0,250,244);"/>
            </g>
        </g>
    </g>
</svg>
